<svg width="159" height="24" viewBox="0 0 159 24" fill="none" xmlns="http://www.w3.org/2000/svg">
<path d="M147.75 3.73047C147.75 4.06199 147.882 4.37993 148.116 4.61435C148.351 4.84877 148.668 4.98047 149 4.98047C149.332 4.98047 149.649 4.84877 149.884 4.61435C150.118 4.37993 150.25 4.06199 150.25 3.73047C150.25 3.39895 150.118 3.08101 149.884 2.84659C149.649 2.61216 149.332 2.48047 149 2.48047C148.668 2.48047 148.351 2.61216 148.116 2.84659C147.882 3.08101 147.75 3.39895 147.75 3.73047ZM147.75 9.98047C147.75 10.312 147.882 10.6299 148.116 10.8644C148.351 11.0988 148.668 11.2305 149 11.2305C149.332 11.2305 149.649 11.0988 149.884 10.8644C150.118 10.6299 150.25 10.312 150.25 9.98047C150.25 9.64895 150.118 9.33101 149.884 9.09659C149.649 8.86217 149.332 8.73047 149 8.73047C148.668 8.73047 148.351 8.86217 148.116 9.09659C147.882 9.33101 147.75 9.64895 147.75 9.98047ZM147.75 16.2305C147.75 16.562 147.882 16.8799 148.116 17.1144C148.351 17.3488 148.668 17.4805 149 17.4805C149.332 17.4805 149.649 17.3488 149.884 17.1144C150.118 16.8799 150.25 16.562 150.25 16.2305C150.25 15.8989 150.118 15.581 149.884 15.3466C149.649 15.1122 149.332 14.9805 149 14.9805C148.668 14.9805 148.351 15.1122 148.116 15.3466C147.882 15.581 147.75 15.8989 147.75 16.2305Z" fill="#666666"/>
</svg>
