<svg width="20" height="20" viewBox="0 0 20 20" fill="none" xmlns="http://www.w3.org/2000/svg">
<path d="M10.0001 2.69238C5.97061 2.69238 2.69238 5.97061 2.69238 10.0001C2.69238 14.0296 5.97061 17.3078 10.0001 17.3078C14.0296 17.3078 17.3078 14.0296 17.3078 10.0001C17.3078 5.97061 14.0296 2.69238 10.0001 2.69238ZM10.3847 16.5269V14.3902L10.882 14.8874C11.0322 15.0376 11.2757 15.0376 11.4259 14.8874C11.5761 14.7372 11.5761 14.4937 11.4259 14.3435C10.1845 13.1025 10.239 13.1393 10.1309 13.1003C10.038 13.0666 9.93265 13.0684 9.83604 13.1141C9.75246 13.1534 9.79031 13.1278 8.57431 14.3435C8.42411 14.4937 8.42411 14.7372 8.57431 14.8874C8.7245 15.0376 8.96804 15.0376 9.11827 14.8874L9.61546 14.3902V16.527C6.31581 16.3345 3.66561 13.6843 3.47323 10.3847H5.61L5.11273 10.882C4.96254 11.0322 4.96254 11.2757 5.11273 11.4259C5.26296 11.5761 5.50646 11.5761 5.65669 11.4259L6.81054 10.2721C6.92127 10.163 6.95715 9.98592 6.88619 9.83634C6.84546 9.74961 6.87723 9.79577 5.65669 8.57431C5.5065 8.42411 5.26296 8.42411 5.11273 8.57431C4.96254 8.7245 4.96254 8.96804 5.11273 9.11827L5.61 9.61546H3.47323C3.66561 6.31581 6.31581 3.66561 9.61546 3.47323V5.61L9.11819 5.11273C8.968 4.96254 8.72446 4.96254 8.57423 5.11273C8.42404 5.26292 8.42404 5.50646 8.57423 5.65669C9.77931 6.85861 9.72942 6.82027 9.78642 6.85834C9.89615 6.93208 10.0417 6.94388 10.1635 6.88638C10.2503 6.84565 10.2099 6.87234 11.4259 5.65673C11.5761 5.50654 11.5761 5.263 11.4259 5.11277C11.2757 4.96257 11.0322 4.96257 10.8819 5.11277L10.3847 5.61V3.47323C13.6843 3.66561 16.3345 6.31581 16.5269 9.61546H14.3902L14.8874 9.11819C15.0376 8.968 15.0376 8.72446 14.8874 8.57423C14.7372 8.42404 14.4937 8.42404 14.3435 8.57423C13.1222 9.7958 13.1532 9.75277 13.1136 9.837C13.0642 9.94154 13.063 10.07 13.1225 10.1815C13.1624 10.2551 13.1191 10.2001 14.3434 11.4259C14.4937 11.5761 14.7371 11.576 14.8874 11.4259C15.0376 11.2757 15.0376 11.0322 14.8874 10.8819L14.3902 10.3847H16.527C16.3345 13.6843 13.6843 16.3345 10.3847 16.5269Z" fill="white"/>
<path d="M10.9586 9.48781C11.0819 9.30423 11.1539 9.0835 11.1539 8.84623C11.1539 8.21 10.6363 7.69238 10.0001 7.69238C9.36387 7.69238 8.84626 8.21 8.84626 8.84623C8.84626 9.0835 8.91833 9.30423 9.0416 9.48781C8.46568 9.82042 8.07703 10.4424 8.07703 11.1539V11.9232C8.07703 12.1355 8.24922 12.3078 8.46164 12.3078H11.5386C11.7509 12.3078 11.9232 12.1355 11.9232 11.9232V11.1539C11.9232 10.4424 11.5345 9.82042 10.9586 9.48781ZM9.61549 8.84623C9.61549 8.63415 9.78803 8.46161 10.0001 8.46161C10.2122 8.46161 10.3847 8.63415 10.3847 8.84623C10.3847 9.05831 10.2122 9.23084 10.0001 9.23084C9.78803 9.23084 9.61549 9.05831 9.61549 8.84623ZM11.1539 11.5385H8.84626V11.1539C8.84626 10.5177 9.36387 10.0001 10.0001 10.0001C10.6363 10.0001 11.1539 10.5177 11.1539 11.1539V11.5385Z" fill="white"/>
<path d="M18.8462 18.4616H13.7006C16.9284 17.0489 19.2308 13.816 19.2308 10.0001C19.2308 4.89844 15.1023 0.769287 10.0001 0.769287C4.89852 0.769287 0.769287 4.89775 0.769287 10.0001C0.769287 13.8058 3.06698 17.0468 6.29956 18.4616H1.1539C0.941479 18.4616 0.769287 18.6338 0.769287 18.8462C0.769287 19.0586 0.941479 19.2308 1.1539 19.2308H18.8462C19.0586 19.2308 19.2308 19.0586 19.2308 18.8462C19.2308 18.6338 19.0586 18.4616 18.8462 18.4616ZM1.53852 10.0001C1.53852 5.33433 5.33433 1.53852 10.0001 1.53852C14.6658 1.53852 18.4616 5.33433 18.4616 10.0001C18.4616 14.6658 14.6658 18.4616 10.0001 18.4616C5.33433 18.4616 1.53852 14.6658 1.53852 10.0001Z" fill="white"/>
</svg>
