<svg width="34" height="30" viewBox="0 0 34 30" fill="none" xmlns="http://www.w3.org/2000/svg">
<g filter="url(#filter0_d_1_6943)">
<path d="M16.9953 29.7539C25.2116 29.7539 31.8723 23.0933 31.8723 14.8769C31.8723 6.66063 25.2116 0 16.9953 0C8.77901 0 2.11837 6.66063 2.11837 14.8769C2.11837 23.0933 8.77901 29.7539 16.9953 29.7539Z" fill="url(#paint0_radial_1_6943)"/>
<path opacity="0.5" d="M16.9953 29.7539C25.2116 29.7539 31.8723 23.0933 31.8723 14.8769C31.8723 6.66063 25.2116 0 16.9953 0C8.77901 0 2.11837 6.66063 2.11837 14.8769C2.11837 23.0933 8.77901 29.7539 16.9953 29.7539Z" fill="url(#paint1_radial_1_6943)"/>
<path d="M27.2512 19.8237C27.2605 19.74 27.2698 19.6563 27.2791 19.5819C27.2605 19.3123 27.0931 19.0612 26.8235 18.9682C26.684 18.9125 26.5352 18.9125 26.3865 18.9497C23.346 19.7958 20.1847 20.2328 16.9954 20.2328C13.8062 20.2328 10.6448 19.8051 7.60433 18.9497C7.46486 18.9125 7.30679 18.9125 7.16732 18.9682C6.90697 19.0705 6.7396 19.303 6.71171 19.5726C6.72101 19.6656 6.73031 19.7586 6.7489 19.8609L6.91627 20.5582C6.95346 20.6884 6.99995 20.8279 7.05574 20.9766C8.09713 23.4127 10.8122 27.6991 17.0047 27.6991C23.1879 27.6991 25.903 23.4034 26.9537 20.9673C27.0002 20.8372 27.0466 20.7163 27.0745 20.5954L27.2512 19.8237Z" fill="url(#paint2_radial_1_6943)"/>
<path d="M16.9952 27.0207C19.3941 27.0207 21.2351 26.3327 22.6391 25.3564C21.0957 24.6404 19.236 24.1755 16.9952 24.1755C14.7544 24.1755 12.8854 24.6404 11.342 25.3657C12.7553 26.342 14.5963 27.0207 16.9952 27.0207Z" fill="url(#paint3_radial_1_6943)"/>
<path d="M27.0746 20.5675L27.2419 19.8516C27.2605 19.7493 27.2698 19.6563 27.2698 19.5726C27.2512 19.303 27.0746 19.0705 26.8142 18.9682C26.6748 18.9125 26.526 18.9125 26.3772 18.9497C23.3368 19.7958 20.1754 20.2328 16.9862 20.2328C13.7969 20.2328 10.6356 19.8051 7.59508 18.9497C7.45561 18.9125 7.29754 18.9125 7.15807 18.9682C6.89773 19.0705 6.73036 19.303 6.70247 19.5726C6.71176 19.6563 6.72106 19.7586 6.73036 19.8609L6.89773 20.5675C6.93492 20.6977 6.98141 20.8372 7.0372 20.9766C7.45561 21.9622 8.15297 23.2454 9.23155 24.4262C8.21806 23.2175 9.464 22.5573 11.7048 22.827C13.9364 23.0966 16.9862 23.1059 16.9862 23.1059C16.9862 23.1059 20.0359 23.0966 22.2675 22.827C24.499 22.5573 25.7543 23.2268 24.7408 24.4262C25.8286 23.2454 26.5167 21.9622 26.9351 20.9766C26.9909 20.8279 27.0374 20.6977 27.0746 20.5675Z" fill="url(#paint4_linear_1_6943)"/>
<path d="M16.9953 20.9116C13.7782 20.9116 10.5982 20.4839 7.52055 19.6285L7.55774 20.0469C7.63212 20.8465 8.2179 21.5067 8.99894 21.6833C11.6117 22.2598 14.2896 22.5481 16.986 22.5481C19.8963 22.5481 22.7787 22.2133 25.5867 21.5439C26.0052 21.4416 26.312 21.0883 26.3585 20.6606L26.4608 19.6378C23.3924 20.4839 20.2124 20.9116 16.9953 20.9116Z" fill="url(#paint5_radial_1_6943)"/>
<path d="M16.9953 29.7539C25.2116 29.7539 31.8723 23.0933 31.8723 14.8769C31.8723 6.66063 25.2116 0 16.9953 0C8.77901 0 2.11837 6.66063 2.11837 14.8769C2.11837 23.0933 8.77901 29.7539 16.9953 29.7539Z" fill="url(#paint6_radial_1_6943)"/>
<path d="M16.9953 29.7539C25.2116 29.7539 31.8723 23.0933 31.8723 14.8769C31.8723 6.66063 25.2116 0 16.9953 0C8.77901 0 2.11837 6.66063 2.11837 14.8769C2.11837 23.0933 8.77901 29.7539 16.9953 29.7539Z" fill="url(#paint7_radial_1_6943)"/>
<path opacity="0.24" d="M29.027 13.1385C29.1665 13.1199 29.2967 13.1106 29.4269 13.1013C29.4269 13.1106 29.4176 13.1292 29.4176 13.1478L29.3804 18.1688C29.3804 18.5779 28.9155 18.801 28.59 18.55L24.629 15.4723C24.5733 15.4258 24.4989 15.4165 24.4338 15.4351L19.6453 16.9507C19.2547 17.0716 18.9014 16.6997 19.0409 16.3185L20.6959 11.7345C20.7517 11.5857 20.7238 11.4184 20.6309 11.2882L17.7949 7.32721C17.702 7.19703 17.6834 7.03897 17.7206 6.89949L18.1948 6.94599C22.6207 7.00177 22.7415 13.9103 29.027 13.1385Z" fill="url(#paint8_radial_1_6943)"/>
<path d="M26.3679 2.56644L23.3832 6.67619C23.346 6.73198 23.2716 6.76917 23.2065 6.75988L18.1297 6.6297C17.7206 6.6204 17.4789 7.08531 17.7206 7.41074L20.6216 11.3996C20.7146 11.5298 20.7425 11.6972 20.6867 11.8552L19.041 16.5043C18.9015 16.8948 19.2734 17.2667 19.6639 17.1365L24.4896 15.5652C24.5547 15.5466 24.6291 15.5559 24.6849 15.6024L28.711 18.6893C29.0364 18.9404 29.5013 18.7079 29.5013 18.2988V13.222C29.5013 13.1477 29.5385 13.0826 29.5943 13.0454L33.7784 10.1723C34.1132 9.93982 34.0388 9.41913 33.6483 9.29825L28.8226 7.72688C28.7575 7.70828 28.7017 7.65249 28.6831 7.58741L27.2419 2.71521C27.1303 2.32469 26.6096 2.23171 26.3679 2.56644Z" fill="url(#paint9_radial_1_6943)"/>
<path d="M30.9238 11.2506C32.0117 10.4789 33.5087 9.65133 33.3041 9.18642L33.6575 9.298C34.048 9.42817 34.1224 9.93957 33.7876 10.172L29.6035 13.0451C29.5477 13.0823 29.5105 13.1474 29.5105 13.2218C29.5291 12.3292 29.8359 12.013 30.9238 11.2506Z" fill="url(#paint10_radial_1_6943)"/>
<path d="M27.2419 2.71521L28.6831 7.57811C28.7017 7.64319 28.7575 7.69898 28.8226 7.71758L33.6576 9.28896C34.0481 9.41913 34.1225 9.93052 33.7877 10.163L29.7245 12.9617C29.5943 13.0547 29.5106 13.2035 29.5106 13.3708V18.2988C29.5106 18.7079 29.0457 18.9404 28.7203 18.6893L24.6942 15.6024C24.6384 15.5559 24.564 15.5466 24.4989 15.5652L19.6732 17.1365C19.2827 17.2667 18.9201 16.8855 19.0503 16.5043L20.7332 11.7158C20.7611 11.6507 20.7425 11.5763 20.7053 11.5205L17.7206 7.41074C17.4789 7.07601 17.7206 6.6204 18.1297 6.6297L23.2065 6.75988C23.2809 6.75988 23.346 6.73198 23.3832 6.67619L26.3679 2.56644C26.6096 2.23171 27.1303 2.32469 27.2419 2.71521Z" fill="url(#paint11_radial_1_6943)"/>
<path d="M27.2419 2.71521L28.6831 7.57811C28.7017 7.64319 28.7575 7.69898 28.8226 7.71758L33.6576 9.28896C34.0481 9.41913 34.1225 9.93052 33.7877 10.163L29.7245 12.9617C29.5943 13.0547 29.5106 13.2035 29.5106 13.3708V18.2988C29.5106 18.7079 29.0457 18.9404 28.7203 18.6893L24.6942 15.6024C24.6384 15.5559 24.564 15.5466 24.4989 15.5652L19.6732 17.1365C19.2827 17.2667 18.9201 16.8855 19.0503 16.5043L20.7332 11.7158C20.7611 11.6507 20.7425 11.5763 20.7053 11.5205L17.7206 7.41074C17.4789 7.07601 17.7206 6.6204 18.1297 6.6297L23.2065 6.75988C23.2809 6.75988 23.346 6.73198 23.3832 6.67619L26.3679 2.56644C26.6096 2.23171 27.1303 2.32469 27.2419 2.71521Z" fill="url(#paint12_radial_1_6943)"/>
<path opacity="0.24" d="M27.2419 2.71521L28.6831 7.57811C28.7017 7.64319 28.7575 7.69898 28.8226 7.71758L33.6576 9.28896C34.0481 9.41913 34.1225 9.93052 33.7877 10.163L29.7245 12.9617C29.5943 13.0547 29.5106 13.2035 29.5106 13.3708V18.2988C29.5106 18.7079 29.0457 18.9404 28.7203 18.6893L24.6942 15.6024C24.6384 15.5559 24.564 15.5466 24.4989 15.5652L19.6732 17.1365C19.2827 17.2667 18.9201 16.8855 19.0503 16.5043L20.7332 11.7158C20.7611 11.6507 20.7425 11.5763 20.7053 11.5205L17.7206 7.41074C17.4789 7.07601 17.7206 6.6204 18.1297 6.6297L23.2065 6.75988C23.2809 6.75988 23.346 6.73198 23.3832 6.67619L26.3679 2.56644C26.6096 2.23171 27.1303 2.32469 27.2419 2.71521Z" fill="url(#paint13_radial_1_6943)"/>
<path opacity="0.24" d="M27.2419 2.71521L28.6831 7.57811C28.7017 7.64319 28.7575 7.69898 28.8226 7.71758L33.6576 9.28896C34.0481 9.41913 34.1225 9.93052 33.7877 10.163L29.7245 12.9617C29.5943 13.0547 29.5106 13.2035 29.5106 13.3708V18.2988C29.5106 18.7079 29.0457 18.9404 28.7203 18.6893L24.6942 15.6024C24.6384 15.5559 24.564 15.5466 24.4989 15.5652L19.6732 17.1365C19.2827 17.2667 18.9201 16.8855 19.0503 16.5043L20.7332 11.7158C20.7611 11.6507 20.7425 11.5763 20.7053 11.5205L17.7206 7.41074C17.4789 7.07601 17.7206 6.6204 18.1297 6.6297L23.2065 6.75988C23.2809 6.75988 23.346 6.73198 23.3832 6.67619L26.3679 2.56644C26.6096 2.23171 27.1303 2.32469 27.2419 2.71521Z" fill="url(#paint14_radial_1_6943)"/>
<path d="M33.6575 9.28849L28.8225 7.72641C28.7574 7.70781 28.7016 7.65202 28.683 7.58694L27.2418 2.71473C27.2418 2.71473 27 2.92859 27.2883 3.96068C27.4835 4.63014 27.967 6.48046 28.246 7.43817C28.4041 7.97746 28.7667 8.05184 29.306 8.21921L32.8764 9.31638C32.8764 9.31638 33.2763 9.41866 33.6575 9.28849Z" fill="url(#paint15_radial_1_6943)"/>
<path d="M19.041 16.5043C18.9015 16.8948 19.2734 17.2667 19.6639 17.1365L24.4896 15.5652C24.5547 15.5466 24.6291 15.5559 24.6849 15.6024L28.711 18.6893C29.0364 18.9404 29.5013 18.7079 29.5013 18.2988V13.222C29.5013 13.1477 29.5385 13.0826 29.5943 13.0454L33.7784 10.1723C34.1132 9.93982 34.0388 9.41913 33.6483 9.29825L28.8226 7.72688C28.7575 7.70828 28.7017 7.65249 28.6831 7.58741L27.2419 2.71521C27.121 2.32469 26.6096 2.23171 26.3679 2.56644L23.3832 6.67619C23.346 6.73198 23.2716 6.76917 23.2065 6.75988L18.1297 6.6297C17.7206 6.6204 17.4789 7.08531 17.7206 7.41074L20.6216 11.3996C20.7146 11.5298 20.7425 11.6972 20.6867 11.8552L19.041 16.5043ZM19.3013 16.5973L20.9471 11.9482C21.0308 11.7065 20.9936 11.4461 20.8448 11.2323L17.9438 7.25267C17.8694 7.15969 17.9066 7.05741 17.9252 7.02952C17.9438 6.99233 17.9996 6.91794 18.1112 6.91794C18.1112 6.91794 18.1112 6.91794 18.1204 6.91794L23.1972 7.04812C23.3553 7.05741 23.5133 6.97373 23.6063 6.84356L26.591 2.7338C26.6468 2.65942 26.7119 2.64082 26.7584 2.64082C26.777 2.64082 26.7863 2.64082 26.7956 2.64082C26.8328 2.65012 26.935 2.67801 26.9629 2.78959L28.4041 7.65249C28.4506 7.81056 28.5715 7.93143 28.7203 7.97793L33.546 9.5493C33.6576 9.58649 33.6855 9.67947 33.6948 9.72597C33.7041 9.76316 33.7041 9.86544 33.6018 9.93052L29.4176 12.8036C29.2875 12.8966 29.2038 13.0454 29.2038 13.2127V18.2895C29.2038 18.4104 29.1201 18.4662 29.0829 18.4848C29.0457 18.5034 28.9527 18.5406 28.8597 18.4662L24.8337 15.3792C24.7035 15.2769 24.5361 15.249 24.3781 15.3048L19.5524 16.8762C19.4408 16.9134 19.3571 16.8483 19.3292 16.8204C19.3292 16.7925 19.2641 16.7088 19.3013 16.5973Z" fill="url(#paint16_radial_1_6943)"/>
<path opacity="0.24" d="M4.96356 13.1384C4.82409 13.1198 4.69392 13.1105 4.56374 13.1012C4.56374 13.1105 4.57304 13.1291 4.57304 13.1477L4.61023 18.1686C4.61023 18.5778 5.07514 18.8009 5.40057 18.5499L9.36156 15.4722C9.41735 15.4257 9.49173 15.4164 9.55682 15.435L14.3453 16.9506C14.7359 17.0715 15.0892 16.6996 14.9497 16.3183L13.2946 11.7251C13.2389 11.5763 13.2668 11.4089 13.3597 11.2788L16.1957 7.31778C16.2886 7.1876 16.3072 7.02954 16.27 6.89007L15.7958 6.93656C11.3699 7.00164 11.2491 13.9101 4.96356 13.1384Z" fill="url(#paint17_radial_1_6943)"/>
<path d="M7.62284 2.56626L10.6075 6.67602C10.6447 6.7318 10.7191 6.769 10.7842 6.7597L15.8609 6.62953C16.2701 6.62023 16.5118 7.08513 16.2701 7.41056L13.3691 11.3994C13.2761 11.5296 13.2482 11.697 13.304 11.8551L14.9497 16.5041C15.0892 16.8946 14.7173 17.2665 14.3268 17.1364L9.50105 15.565C9.43597 15.5464 9.36158 15.5557 9.30579 15.6022L5.27972 18.6891C4.95429 18.9402 4.48938 18.7077 4.48938 18.2986V13.2219C4.48938 13.1475 4.45219 13.0824 4.3964 13.0452L0.212259 10.1721C-0.122472 9.93964 -0.0480872 9.41895 0.342433 9.29808L5.16814 7.7267C5.23323 7.7081 5.28902 7.65231 5.30761 7.58723L6.74882 2.72433C6.86969 2.32451 7.38109 2.23153 7.62284 2.56626Z" fill="url(#paint18_radial_1_6943)"/>
<path d="M3.07607 11.2506C1.9882 10.4789 0.491202 9.65133 0.69576 9.18642L0.342433 9.298C-0.0480872 9.42817 -0.122472 9.93957 0.212259 10.172L4.3964 13.0451C4.45219 13.0823 4.48938 13.1474 4.48938 13.2218C4.47079 12.3292 4.15465 12.013 3.07607 11.2506Z" fill="url(#paint19_radial_1_6943)"/>
<path d="M13.9362 9.38188C14.7079 8.29401 15.833 7.01087 15.489 6.63895L15.8609 6.62965C16.27 6.62035 16.5118 7.08525 16.27 7.41069L13.2946 11.5204C13.2574 11.5762 13.2388 11.6506 13.2667 11.7157C12.9785 10.8696 13.1644 10.4698 13.9362 9.38188Z" fill="url(#paint20_radial_1_6943)"/>
<path d="M15.8609 6.62961L10.7842 6.75978C10.7098 6.75978 10.6447 6.73189 10.6075 6.6761L7.62283 2.56634C7.62283 2.56634 7.46476 2.85458 8.08773 3.71931C8.48755 4.28649 9.56613 5.86717 10.1519 6.6761C10.4773 7.141 10.84 7.08522 11.4072 7.05732L15.145 6.89925C15.1357 6.90855 15.5541 6.87136 15.8609 6.62961Z" fill="url(#paint21_radial_1_6943)"/>
<path d="M6.74882 2.71521L5.30761 7.57811C5.28902 7.64319 5.23323 7.69898 5.16814 7.71758L0.342433 9.28896C-0.0480872 9.41913 -0.122472 9.93052 0.212259 10.163L4.27553 12.9617C4.4057 13.0547 4.48938 13.2035 4.48938 13.3708V18.2988C4.48938 18.7079 4.95429 18.9404 5.27972 18.6893L9.30579 15.6024C9.36158 15.5559 9.43597 15.5466 9.50105 15.5652L14.3268 17.1365C14.7173 17.2667 15.0799 16.8855 14.9497 16.5043L13.2575 11.7158C13.2296 11.6507 13.2482 11.5763 13.2854 11.5205L16.2701 7.41074C16.5118 7.07601 16.2701 6.6204 15.8609 6.6297L10.7842 6.75988C10.7098 6.75988 10.6447 6.73198 10.6075 6.67619L7.62284 2.56644C7.38109 2.23171 6.86969 2.32469 6.74882 2.71521Z" fill="url(#paint22_radial_1_6943)"/>
<path d="M6.74882 2.71521L5.30761 7.57811C5.28902 7.64319 5.23323 7.69898 5.16814 7.71758L0.342433 9.28896C-0.0480872 9.41913 -0.122472 9.93052 0.212259 10.163L4.27553 12.9617C4.4057 13.0547 4.48938 13.2035 4.48938 13.3708V18.2988C4.48938 18.7079 4.95429 18.9404 5.27972 18.6893L9.30579 15.6024C9.36158 15.5559 9.43597 15.5466 9.50105 15.5652L14.3268 17.1365C14.7173 17.2667 15.0799 16.8855 14.9497 16.5043L13.2575 11.7158C13.2296 11.6507 13.2482 11.5763 13.2854 11.5205L16.2701 7.41074C16.5118 7.07601 16.2701 6.6204 15.8609 6.6297L10.7842 6.75988C10.7098 6.75988 10.6447 6.73198 10.6075 6.67619L7.62284 2.56644C7.38109 2.23171 6.86969 2.32469 6.74882 2.71521Z" fill="url(#paint23_radial_1_6943)"/>
<path opacity="0.24" d="M6.74882 2.71521L5.30761 7.57811C5.28902 7.64319 5.23323 7.69898 5.16814 7.71758L0.342433 9.28896C-0.0480872 9.41913 -0.122472 9.93052 0.212259 10.163L4.27553 12.9617C4.4057 13.0547 4.48938 13.2035 4.48938 13.3708V18.2988C4.48938 18.7079 4.95429 18.9404 5.27972 18.6893L9.30579 15.6024C9.36158 15.5559 9.43597 15.5466 9.50105 15.5652L14.3268 17.1365C14.7173 17.2667 15.0799 16.8855 14.9497 16.5043L13.2575 11.7158C13.2296 11.6507 13.2482 11.5763 13.2854 11.5205L16.2701 7.41074C16.5118 7.07601 16.2701 6.6204 15.8609 6.6297L10.7842 6.75988C10.7098 6.75988 10.6447 6.73198 10.6075 6.67619L7.62284 2.56644C7.38109 2.23171 6.86969 2.32469 6.74882 2.71521Z" fill="url(#paint24_radial_1_6943)"/>
<path opacity="0.24" d="M6.74882 2.71521L5.30761 7.57811C5.28902 7.64319 5.23323 7.69898 5.16814 7.71758L0.342433 9.28896C-0.0480872 9.41913 -0.122472 9.93052 0.212259 10.163L4.27553 12.9617C4.4057 13.0547 4.48938 13.2035 4.48938 13.3708V18.2988C4.48938 18.7079 4.95429 18.9404 5.27972 18.6893L9.30579 15.6024C9.36158 15.5559 9.43597 15.5466 9.50105 15.5652L14.3268 17.1365C14.7173 17.2667 15.0799 16.8855 14.9497 16.5043L13.2575 11.7158C13.2296 11.6507 13.2482 11.5763 13.2854 11.5205L16.2701 7.41074C16.5118 7.07601 16.2701 6.6204 15.8609 6.6297L10.7842 6.75988C10.7098 6.75988 10.6447 6.73198 10.6075 6.67619L7.62284 2.56644C7.38109 2.23171 6.86969 2.32469 6.74882 2.71521Z" fill="url(#paint25_radial_1_6943)"/>
<path d="M0.342506 9.28849L5.16821 7.71711C5.2333 7.69851 5.28909 7.64272 5.30769 7.57764L6.74889 2.71473C6.74889 2.71473 6.99064 2.92859 6.7024 3.96068C6.50714 4.63014 6.02364 6.48046 5.7447 7.43817C5.58663 7.97746 5.224 8.05184 4.68471 8.21921L1.11425 9.31638C1.11425 9.31638 0.714429 9.41866 0.342506 9.28849Z" fill="url(#paint26_radial_1_6943)"/>
<path d="M20.0636 9.38188C19.2918 8.29401 18.1668 7.01087 18.5108 6.63895L18.1389 6.62965C17.7298 6.62035 17.488 7.08525 17.7298 7.41069L20.7144 11.5204C20.7516 11.5762 20.7702 11.6506 20.7423 11.7157C21.012 10.8696 20.826 10.4698 20.0636 9.38188Z" fill="url(#paint27_radial_1_6943)"/>
<path d="M10.3287 7.62438C10.9331 8.64717 9.92891 10.3487 8.09719 11.418C6.26547 12.4873 4.29427 12.5338 3.69919 11.511C3.10412 10.4882 4.09901 8.78665 5.93074 7.71737C7.76246 6.64808 9.72435 6.61089 10.3287 7.62438Z" fill="url(#paint28_radial_1_6943)"/>
<path d="M27.874 7.12226C28.4784 8.14505 27.4742 9.8466 25.6425 10.9159C23.8107 11.9852 21.8395 12.0316 21.2445 11.0089C20.6494 9.98607 21.6443 8.28452 23.476 7.21524C25.3077 6.14596 27.2696 6.09947 27.874 7.12226Z" fill="url(#paint29_radial_1_6943)"/>
<path d="M13.3133 11.8552C13.2575 11.7065 13.2854 11.5298 13.3784 11.3996L16.2701 7.41074C16.5118 7.07601 16.2701 6.62041 15.8609 6.6297L10.7842 6.75988C10.7098 6.75988 10.6447 6.73198 10.6075 6.67619L7.62284 2.56644C7.38109 2.23171 6.86969 2.32469 6.74882 2.71521L5.30761 7.57811C5.28902 7.64319 5.23323 7.69898 5.16814 7.71758L0.342433 9.28896C-0.0480872 9.41913 -0.122472 9.93053 0.212259 10.163L4.3964 13.0361C4.45219 13.0733 4.48938 13.1384 4.48938 13.2128V18.2895C4.48938 18.6986 4.95429 18.9311 5.27972 18.68L9.30579 15.5931C9.36158 15.5466 9.43597 15.5373 9.50105 15.5559L14.3268 17.1272C14.7173 17.2574 15.0799 16.8762 14.9497 16.495L13.3133 11.8552ZM14.6429 16.8204C14.615 16.8483 14.5406 16.9134 14.4197 16.8762L9.59403 15.3048C9.43597 15.2583 9.2686 15.2862 9.13843 15.3792L5.11235 18.4755C5.01937 18.5499 4.92639 18.5127 4.8892 18.4941C4.85201 18.4755 4.76832 18.4197 4.76832 18.2988V13.222C4.76832 13.064 4.68464 12.9059 4.55447 12.8129L0.370327 9.93982C0.268048 9.87474 0.277346 9.77246 0.277346 9.73526C0.286644 9.69807 0.30524 9.59579 0.426115 9.5586L5.25183 7.98722C5.40989 7.94073 5.52147 7.81056 5.56796 7.66179L7.00916 2.79889C7.04636 2.68731 7.13934 2.65942 7.17653 2.65012C7.18583 2.65012 7.19513 2.65012 7.21372 2.65012C7.26021 2.65012 7.3346 2.66872 7.38109 2.7431L10.3658 6.85286C10.4588 6.98303 10.6168 7.05742 10.7749 7.05742L15.8516 6.92724C15.8516 6.92724 15.8517 6.92724 15.8609 6.92724C15.9725 6.92724 16.0283 7.01092 16.0469 7.03882C16.0655 7.07601 16.1027 7.16899 16.0283 7.26197L13.1273 11.2509C12.9785 11.4554 12.9413 11.7251 13.025 11.9668L14.6708 16.6159C14.7266 16.7088 14.6708 16.7925 14.6429 16.8204Z" fill="url(#paint30_radial_1_6943)"/>
</g>
<defs>
<filter id="filter0_d_1_6943" x="-4.06565" y="0" width="42.1313" height="37.8852" filterUnits="userSpaceOnUse" color-interpolation-filters="sRGB">
<feFlood flood-opacity="0" result="BackgroundImageFix"/>
<feColorMatrix in="SourceAlpha" type="matrix" values="0 0 0 0 0 0 0 0 0 0 0 0 0 0 0 0 0 0 127 0" result="hardAlpha"/>
<feOffset dy="4"/>
<feGaussianBlur stdDeviation="2"/>
<feComposite in2="hardAlpha" operator="out"/>
<feColorMatrix type="matrix" values="0 0 0 0 0 0 0 0 0 0 0 0 0 0 0 0 0 0 0.25 0"/>
<feBlend mode="normal" in2="BackgroundImageFix" result="effect1_dropShadow_1_6943"/>
<feBlend mode="normal" in="SourceGraphic" in2="effect1_dropShadow_1_6943" result="shape"/>
</filter>
<radialGradient id="paint0_radial_1_6943" cx="0" cy="0" r="1" gradientUnits="userSpaceOnUse" gradientTransform="translate(14.0701 8.84782) scale(17.9471 17.9471)">
<stop stop-color="#FFE030"/>
<stop offset="1" stop-color="#FFB92E"/>
</radialGradient>
<radialGradient id="paint1_radial_1_6943" cx="0" cy="0" r="1" gradientUnits="userSpaceOnUse" gradientTransform="translate(14.0701 8.84782) scale(14.1198)">
<stop stop-color="#FFEA5F"/>
<stop offset="1" stop-color="#FFBC47" stop-opacity="0"/>
</radialGradient>
<radialGradient id="paint2_radial_1_6943" cx="0" cy="0" r="1" gradientUnits="userSpaceOnUse" gradientTransform="translate(16.9959 23.3134) scale(7.90477 7.90476)">
<stop offset="0.00132565" stop-color="#7A4400"/>
<stop offset="1" stop-color="#643800"/>
</radialGradient>
<radialGradient id="paint3_radial_1_6943" cx="0" cy="0" r="1" gradientUnits="userSpaceOnUse" gradientTransform="translate(17.1103 25.9416) scale(6.28927 1.90163)">
<stop offset="0.2479" stop-color="#FF0000"/>
<stop offset="1" stop-color="#C20000"/>
</radialGradient>
<linearGradient id="paint4_linear_1_6943" x1="27.1644" y1="21.6781" x2="6.95375" y2="21.6781" gradientUnits="userSpaceOnUse">
<stop offset="0.00132565" stop-color="#3C2200"/>
<stop offset="0.5" stop-color="#512D00"/>
<stop offset="1" stop-color="#3C2200"/>
</linearGradient>
<radialGradient id="paint5_radial_1_6943" cx="0" cy="0" r="1" gradientUnits="userSpaceOnUse" gradientTransform="translate(16.9964 21.0876) scale(17.3375 17.3375)">
<stop offset="0.00132565" stop-color="white"/>
<stop offset="1" stop-color="#A9BCBE"/>
</radialGradient>
<radialGradient id="paint6_radial_1_6943" cx="0" cy="0" r="1" gradientUnits="userSpaceOnUse" gradientTransform="translate(30.6782 14.3604) rotate(34.2288) scale(8.44248 8.49423)">
<stop stop-color="#FF8000" stop-opacity="0.5"/>
<stop offset="0.995" stop-color="#FF8000" stop-opacity="0"/>
</radialGradient>
<radialGradient id="paint7_radial_1_6943" cx="0" cy="0" r="1" gradientUnits="userSpaceOnUse" gradientTransform="translate(3.31751 14.3631) rotate(145.771) scale(8.44248 8.49423)">
<stop stop-color="#FF8000" stop-opacity="0.5"/>
<stop offset="0.995" stop-color="#FF8000" stop-opacity="0"/>
</radialGradient>
<radialGradient id="paint8_radial_1_6943" cx="0" cy="0" r="1" gradientUnits="userSpaceOnUse" gradientTransform="translate(24.0736 12.2826) rotate(180) scale(12.5146 12.5146)">
<stop stop-color="white"/>
<stop offset="1" stop-color="white" stop-opacity="0"/>
</radialGradient>
<radialGradient id="paint9_radial_1_6943" cx="0" cy="0" r="1" gradientUnits="userSpaceOnUse" gradientTransform="translate(26.1974 8.60605) rotate(-170.266) scale(8.10917)">
<stop stop-color="#FFEA5F"/>
<stop offset="0.4904" stop-color="#FFE95D"/>
<stop offset="0.667" stop-color="#FFE756"/>
<stop offset="0.793" stop-color="#FFE34B"/>
<stop offset="0.8947" stop-color="#FEDD3A"/>
<stop offset="0.9809" stop-color="#FED524"/>
<stop offset="1" stop-color="#FED31E"/>
</radialGradient>
<radialGradient id="paint10_radial_1_6943" cx="0" cy="0" r="1" gradientUnits="userSpaceOnUse" gradientTransform="translate(31.556 12.7747) rotate(-130.782) scale(1.49976 4.03826)">
<stop stop-color="#D86D00"/>
<stop offset="0.3292" stop-color="#DC6C0A" stop-opacity="0.6708"/>
<stop offset="0.8792" stop-color="#E86823" stop-opacity="0.1208"/>
<stop offset="1" stop-color="#EB672A" stop-opacity="0"/>
</radialGradient>
<radialGradient id="paint11_radial_1_6943" cx="0" cy="0" r="1" gradientUnits="userSpaceOnUse" gradientTransform="translate(22.2014 17.7563) rotate(-16.5811) scale(4.45864 2.11285)">
<stop stop-color="#D86D00"/>
<stop offset="0.3292" stop-color="#DC6C0A" stop-opacity="0.6708"/>
<stop offset="0.8792" stop-color="#E86823" stop-opacity="0.1208"/>
<stop offset="1" stop-color="#EB672A" stop-opacity="0"/>
</radialGradient>
<radialGradient id="paint12_radial_1_6943" cx="0" cy="0" r="1" gradientUnits="userSpaceOnUse" gradientTransform="translate(23.7141 20.4474) rotate(12.5087) scale(5.89466 6.04313)">
<stop stop-color="#D86D00"/>
<stop offset="0.3292" stop-color="#DC6C0A" stop-opacity="0.6708"/>
<stop offset="0.8792" stop-color="#E86823" stop-opacity="0.1208"/>
<stop offset="1" stop-color="#EB672A" stop-opacity="0"/>
</radialGradient>
<radialGradient id="paint13_radial_1_6943" cx="0" cy="0" r="1" gradientUnits="userSpaceOnUse" gradientTransform="translate(22.9124 13.651) rotate(31.2857) scale(6.23274 4.711)">
<stop stop-color="#FFA754"/>
<stop offset="0.3697" stop-color="#FFB152" stop-opacity="0.6303"/>
<stop offset="0.9874" stop-color="#FFCA4B" stop-opacity="0.0126062"/>
<stop offset="1" stop-color="#FFCB4B" stop-opacity="0"/>
</radialGradient>
<radialGradient id="paint14_radial_1_6943" cx="0" cy="0" r="1" gradientUnits="userSpaceOnUse" gradientTransform="translate(26.4804 8.44759) rotate(31.2857) scale(3.75528 2.83842)">
<stop stop-color="white"/>
<stop offset="1" stop-color="white" stop-opacity="0"/>
</radialGradient>
<radialGradient id="paint15_radial_1_6943" cx="0" cy="0" r="1" gradientUnits="userSpaceOnUse" gradientTransform="translate(31.642 4.87444) rotate(56.5612) scale(5.87355 4.0422)">
<stop stop-color="#ED9900"/>
<stop offset="1" stop-color="#ED9900" stop-opacity="0"/>
</radialGradient>
<radialGradient id="paint16_radial_1_6943" cx="0" cy="0" r="1" gradientUnits="userSpaceOnUse" gradientTransform="translate(25.4531 10.4807) rotate(180) scale(6.94951 6.9495)">
<stop stop-color="#A3541E" stop-opacity="0.5"/>
<stop offset="0.5109" stop-color="#A5551D" stop-opacity="0.7555"/>
<stop offset="0.695" stop-color="#AC5819" stop-opacity="0.8475"/>
<stop offset="0.8261" stop-color="#B75E12" stop-opacity="0.9131"/>
<stop offset="0.9315" stop-color="#C86609" stop-opacity="0.9657"/>
<stop offset="1" stop-color="#D86D00"/>
</radialGradient>
<radialGradient id="paint17_radial_1_6943" cx="0" cy="0" r="1" gradientUnits="userSpaceOnUse" gradientTransform="translate(9.92069 12.2825) scale(12.5146 12.5146)">
<stop stop-color="white"/>
<stop offset="1" stop-color="white" stop-opacity="0"/>
</radialGradient>
<radialGradient id="paint18_radial_1_6943" cx="0" cy="0" r="1" gradientUnits="userSpaceOnUse" gradientTransform="translate(7.79793 8.60603) rotate(-9.73431) scale(8.10917)">
<stop stop-color="#FFEA5F"/>
<stop offset="0.4904" stop-color="#FFE95D"/>
<stop offset="0.667" stop-color="#FFE756"/>
<stop offset="0.793" stop-color="#FFE34B"/>
<stop offset="0.8947" stop-color="#FEDD3A"/>
<stop offset="0.9809" stop-color="#FED524"/>
<stop offset="1" stop-color="#FED31E"/>
</radialGradient>
<radialGradient id="paint19_radial_1_6943" cx="0" cy="0" r="1" gradientUnits="userSpaceOnUse" gradientTransform="translate(2.43911 12.7741) rotate(-49.2176) scale(1.49977 4.03826)">
<stop stop-color="#D86D00"/>
<stop offset="0.3292" stop-color="#DC6C0A" stop-opacity="0.6708"/>
<stop offset="0.8792" stop-color="#E86823" stop-opacity="0.1208"/>
<stop offset="1" stop-color="#EB672A" stop-opacity="0"/>
</radialGradient>
<radialGradient id="paint20_radial_1_6943" cx="0" cy="0" r="1" gradientUnits="userSpaceOnUse" gradientTransform="translate(14.9196 10.8728) rotate(-150.251) scale(1.49984 4.03822)">
<stop stop-color="#D86D00"/>
<stop offset="0.3292" stop-color="#DC6C0A" stop-opacity="0.6708"/>
<stop offset="0.8792" stop-color="#E86823" stop-opacity="0.1208"/>
<stop offset="1" stop-color="#EB672A" stop-opacity="0"/>
</radialGradient>
<radialGradient id="paint21_radial_1_6943" cx="0" cy="0" r="1" gradientUnits="userSpaceOnUse" gradientTransform="translate(12.4917 3.14175) rotate(37.0947) scale(5.87269 4.04214)">
<stop stop-color="#ED9900"/>
<stop offset="1" stop-color="#ED9900" stop-opacity="0"/>
</radialGradient>
<radialGradient id="paint22_radial_1_6943" cx="0" cy="0" r="1" gradientUnits="userSpaceOnUse" gradientTransform="translate(11.7932 17.7539) rotate(-163.419) scale(4.45864 2.11285)">
<stop stop-color="#D86D00"/>
<stop offset="0.3292" stop-color="#DC6C0A" stop-opacity="0.6708"/>
<stop offset="0.8792" stop-color="#E86823" stop-opacity="0.1208"/>
<stop offset="1" stop-color="#EB672A" stop-opacity="0"/>
</radialGradient>
<radialGradient id="paint23_radial_1_6943" cx="0" cy="0" r="1" gradientUnits="userSpaceOnUse" gradientTransform="translate(10.2816 20.4473) rotate(167.491) scale(5.89466 6.04313)">
<stop stop-color="#D86D00"/>
<stop offset="0.3292" stop-color="#DC6C0A" stop-opacity="0.6708"/>
<stop offset="0.8792" stop-color="#E86823" stop-opacity="0.1208"/>
<stop offset="1" stop-color="#EB672A" stop-opacity="0"/>
</radialGradient>
<radialGradient id="paint24_radial_1_6943" cx="0" cy="0" r="1" gradientUnits="userSpaceOnUse" gradientTransform="translate(11.0837 13.6533) rotate(148.714) scale(6.23274 4.711)">
<stop stop-color="#FFA754"/>
<stop offset="0.3697" stop-color="#FFB152" stop-opacity="0.6303"/>
<stop offset="0.9874" stop-color="#FFCA4B" stop-opacity="0.0126062"/>
<stop offset="1" stop-color="#FFCB4B" stop-opacity="0"/>
</radialGradient>
<radialGradient id="paint25_radial_1_6943" cx="0" cy="0" r="1" gradientUnits="userSpaceOnUse" gradientTransform="translate(7.51573 8.44989) rotate(148.714) scale(3.75528 2.83842)">
<stop stop-color="white"/>
<stop offset="1" stop-color="white" stop-opacity="0"/>
</radialGradient>
<radialGradient id="paint26_radial_1_6943" cx="0" cy="0" r="1" gradientUnits="userSpaceOnUse" gradientTransform="translate(2.35428 4.87229) rotate(123.439) scale(5.87355 4.0422)">
<stop stop-color="#ED9900"/>
<stop offset="1" stop-color="#ED9900" stop-opacity="0"/>
</radialGradient>
<radialGradient id="paint27_radial_1_6943" cx="0" cy="0" r="1" gradientUnits="userSpaceOnUse" gradientTransform="translate(19.0765 10.8718) rotate(-29.7489) scale(1.49984 4.03822)">
<stop stop-color="#D86D00"/>
<stop offset="0.3292" stop-color="#DC6C0A" stop-opacity="0.6708"/>
<stop offset="0.8792" stop-color="#E86823" stop-opacity="0.1208"/>
<stop offset="1" stop-color="#EB672A" stop-opacity="0"/>
</radialGradient>
<radialGradient id="paint28_radial_1_6943" cx="0" cy="0" r="1" gradientUnits="userSpaceOnUse" gradientTransform="translate(7.01397 9.548) rotate(-31.91) scale(3.87021 2.08303)">
<stop stop-color="white" stop-opacity="0.5"/>
<stop offset="0.995" stop-color="white" stop-opacity="0"/>
</radialGradient>
<radialGradient id="paint29_radial_1_6943" cx="0" cy="0" r="1" gradientUnits="userSpaceOnUse" gradientTransform="translate(24.5562 9.0371) rotate(-31.91) scale(3.87021 2.08304)">
<stop stop-color="white" stop-opacity="0.5"/>
<stop offset="0.995" stop-color="white" stop-opacity="0"/>
</radialGradient>
<radialGradient id="paint30_radial_1_6943" cx="0" cy="0" r="1" gradientUnits="userSpaceOnUse" gradientTransform="translate(8.54126 10.4807) scale(6.94951 6.9495)">
<stop stop-color="#A3541E" stop-opacity="0.5"/>
<stop offset="0.5109" stop-color="#A5551D" stop-opacity="0.7555"/>
<stop offset="0.695" stop-color="#AC5819" stop-opacity="0.8475"/>
<stop offset="0.8261" stop-color="#B75E12" stop-opacity="0.9131"/>
<stop offset="0.9315" stop-color="#C86609" stop-opacity="0.9657"/>
<stop offset="1" stop-color="#D86D00"/>
</radialGradient>
</defs>
</svg>
