<svg width="178" height="178" viewBox="0 0 178 178" fill="none" xmlns="http://www.w3.org/2000/svg">
<path d="M43.5085 164.329C32.6388 157.765 23.3184 148.926 16.1873 138.42C9.05622 127.913 4.2834 115.988 2.19654 103.462C0.109681 90.9369 0.758225 78.1083 4.09764 65.8572C7.43706 53.6061 13.3882 42.2228 21.5426 32.489C29.6969 22.7552 39.8611 14.9013 51.3375 9.46677C62.8138 4.03222 75.3303 1.14568 88.0276 1.00537C100.725 0.865061 113.302 3.47429 124.896 8.65391C136.489 13.8335 146.825 21.4608 155.192 31.0121L89 89L43.5085 164.329Z" fill="#FAD337" stroke="white" stroke-width="2"/>
<path d="M166.527 130.636C160.723 141.443 152.724 150.917 143.042 158.451C133.361 165.985 122.211 171.411 110.309 174.381C98.4066 177.352 86.0149 177.801 73.9289 175.7C61.8428 173.599 50.3296 168.994 40.128 162.181L89 89L166.527 130.636Z" fill="#36CBCB" stroke="white" stroke-width="2"/>
<path d="M89 1C104.286 1 119.307 4.98151 132.586 12.5524C145.865 20.1233 156.943 31.0225 164.729 44.1765C172.515 57.3305 176.74 72.2857 176.988 87.5692C177.237 102.853 173.5 117.937 166.146 131.338L89 89V1Z" fill="#3AA0FF" stroke="white" stroke-width="2"/>
</svg>
