<svg width="24" height="24" viewBox="0 0 24 24" fill="none" xmlns="http://www.w3.org/2000/svg">
<path d="M21.5627 11.3514L11.4431 2.56833C11.3654 2.50137 11.2663 2.46387 11.1618 2.46387H8.79128C8.59307 2.46387 8.502 2.7103 8.652 2.83887L18.0324 10.9817H2.35735C2.23949 10.9817 2.14307 11.0782 2.14307 11.196V12.8032C2.14307 12.921 2.23949 13.0174 2.35735 13.0174H18.0297L8.64932 21.1603C8.49932 21.2915 8.59039 21.5353 8.7886 21.5353H11.2395C11.2904 21.5353 11.3413 21.5165 11.3788 21.4817L21.5627 12.6478C21.6554 12.5672 21.7298 12.4676 21.7807 12.3557C21.8317 12.2439 21.8581 12.1225 21.8581 11.9996C21.8581 11.8767 21.8317 11.7552 21.7807 11.6434C21.7298 11.5316 21.6554 11.432 21.5627 11.3514Z" fill="#3F7FFF"/>
</svg>
