<svg width="260" height="141" viewBox="0 0 260 141" fill="none" xmlns="http://www.w3.org/2000/svg">
<path d="M214.341 86.0969V0.5H46.9872V108.663" stroke="#4474FC"/>
<path d="M240.546 112.17V86.8751H176.018V119.252" stroke="#119446"/>
<path d="M192.466 132.284V119.253H160.835V132.284" stroke="#119446"/>
<path d="M252.859 131.679L252.859 112.029H222.974V124.121" stroke="#119446"/>
<path d="M229.615 140.324V124.604H216.333V140.324" stroke="#119446"/>
<path d="M259.5 140.324V132.464H246.218V140.324" stroke="#119446"/>
<path d="M169.692 140.501V132.406H153.244V140.501" stroke="#119446"/>
<path d="M201.323 140.501V132.406H184.875V140.501" stroke="#119446"/>
<path d="M87.6954 116.675V108.662H23.5813V120.682" stroke="#FC5F5F"/>
<path d="M40.251 132.701V120.681H8.19391V132.701" stroke="#FC5F5F"/>
<path d="M15.8874 139.713V132.702H0.5V139.713" stroke="#FC5F5F"/>
<path d="M47.9443 139.713V132.702H32.5569V139.713" stroke="#FC5F5F"/>
<path d="M81.1884 139.51V128.616H66.2461V139.51" stroke="#FC5F5F"/>
<path d="M112.069 139.51V128.616H97.1269V139.51" stroke="#FC5F5F"/>
<path d="M103.083 128.695V116.675H71.0256V128.695" stroke="#FC5F5F"/>
</svg>
