<svg width="20" height="20" viewBox="0 0 20 20" fill="none" xmlns="http://www.w3.org/2000/svg">
<path d="M9.8592 13.3217C9.87591 13.3431 9.89725 13.3603 9.92161 13.3722C9.94598 13.3841 9.97272 13.3902 9.99983 13.3902C10.0269 13.3902 10.0537 13.3841 10.078 13.3722C10.1024 13.3603 10.1237 13.3431 10.1405 13.3217L12.6405 10.1588C12.732 10.0427 12.6494 9.87082 12.4998 9.87082H10.8458V2.31724C10.8458 2.21903 10.7655 2.13867 10.6672 2.13867H9.32795C9.22974 2.13867 9.14938 2.21903 9.14938 2.31724V9.86858H7.49983C7.35027 9.86858 7.26768 10.0405 7.3592 10.1565L9.8592 13.3217ZM18.1695 12.5405H16.8302C16.732 12.5405 16.6516 12.6208 16.6516 12.719V16.1565H3.34804V12.719C3.34804 12.6208 3.26768 12.5405 3.16947 12.5405H1.83018C1.73197 12.5405 1.65161 12.6208 1.65161 12.719V17.1387C1.65161 17.5338 1.97081 17.853 2.3659 17.853H17.6338C18.0288 17.853 18.348 17.5338 18.348 17.1387V12.719C18.348 12.6208 18.2677 12.5405 18.1695 12.5405Z" fill="white"/>
</svg>
