<svg width="80" height="80" viewBox="0 0 80 80" fill="none" xmlns="http://www.w3.org/2000/svg">
<path d="M1 40C1 29.6566 5.10892 19.7368 12.4228 12.4228C19.7368 5.10892 29.6566 1 40 1V40L1 40Z" fill="#FACC15" stroke="white" stroke-width="2"/>
<path d="M40 1C47.7135 1 55.2537 3.28731 61.6672 7.57269C68.0808 11.8581 73.0795 17.949 76.0313 25.0753C78.9831 32.2017 79.7554 40.0433 78.2506 47.6085C76.7458 55.1738 73.0314 62.1229 67.5772 67.5772C62.1229 73.0314 55.1738 76.7458 47.6085 78.2506C40.0433 79.7554 32.2017 78.9831 25.0753 76.0313C17.949 73.0795 11.8581 68.0808 7.57268 61.6672C3.28731 55.2537 1 47.7135 1 40H40V1Z" fill="#8F60FA" stroke="white" stroke-width="2"/>
</svg>
