<svg width="38" height="38" viewBox="0 0 38 38" fill="none" xmlns="http://www.w3.org/2000/svg">
<g filter="url(#filter0_d_1_7000)">
<path d="M19 29.8441C27.2412 29.8441 33.922 23.1632 33.922 14.922C33.922 6.68082 27.2412 0 19 0C10.7588 0 4.07797 6.68082 4.07797 14.922C4.07797 23.1632 10.7588 29.8441 19 29.8441Z" fill="url(#paint0_radial_1_7000)"/>
<path opacity="0.5" d="M19 29.8441C27.2412 29.8441 33.922 23.1632 33.922 14.922C33.922 6.68082 27.2412 0 19 0C10.7588 0 4.07797 6.68082 4.07797 14.922C4.07797 23.1632 10.7588 29.8441 19 29.8441Z" fill="url(#paint1_radial_1_7000)"/>
<path opacity="0.24" d="M19 29.8441C27.2412 29.8441 33.922 23.1632 33.922 14.922C33.922 6.68082 27.2412 0 19 0C10.7588 0 4.07797 6.68082 4.07797 14.922C4.07797 23.1632 10.7588 29.8441 19 29.8441Z" fill="url(#paint2_radial_1_7000)"/>
<path opacity="0.24" d="M19 29.8441C27.2412 29.8441 33.922 23.1632 33.922 14.922C33.922 6.68082 27.2412 0 19 0C10.7588 0 4.07797 6.68082 4.07797 14.922C4.07797 23.1632 10.7588 29.8441 19 29.8441Z" fill="url(#paint3_radial_1_7000)"/>
<path d="M13.0729 14.7972C13.0729 14.7972 10.7131 14.7972 9.8872 13.0968C9.83861 12.9927 9.80391 12.8747 9.79003 12.7567C9.76921 12.5207 9.9566 12.25 10.4008 12.4374C13.1076 13.5895 14.5165 12.7775 15.5714 12.2084C15.9809 11.9863 16.4043 12.3819 16.3141 12.7775C16.2863 12.8955 16.2724 13.0135 16.2239 13.1176C15.4326 14.8111 13.0729 14.7972 13.0729 14.7972Z" fill="url(#paint4_radial_1_7000)"/>
<path d="M15.0163 7.8709C15.0024 7.27401 14.3431 6.92005 13.2326 6.94781C12.2887 6.97557 10.2274 7.55163 8.85315 9.43251C8.59635 9.77953 9.01278 9.95304 9.26263 9.72401C10.1163 8.95361 12.4414 7.92642 14.2806 8.07911C15.0232 8.13463 15.0163 7.8709 15.0163 7.8709Z" fill="url(#paint5_linear_1_7000)"/>
<path d="M25.5935 19.2876C25.4685 19.2668 25.3436 19.3015 25.2534 19.3917C23.6501 20.8978 21.1793 21.7029 19.3193 21.7029H19H18.6807C16.8207 21.7029 14.3429 20.8978 12.7466 19.3917C12.6564 19.3084 12.5315 19.2668 12.4065 19.2876C12.2816 19.3084 12.2122 19.4542 12.2747 19.5722C13.6419 21.9389 16.1752 23.4103 18.9236 23.4103H19.0069H19.0902C21.8386 23.4103 24.3719 21.9458 25.7392 19.5722C25.7947 19.4542 25.7253 19.3154 25.5935 19.2876Z" fill="#643800"/>
<path d="M25.5935 19.2876C25.4685 19.2668 25.3436 19.3015 25.2534 19.3917C23.6501 20.8978 21.1793 21.7029 19.3193 21.7029H19H18.6807C16.8207 21.7029 14.3429 20.8978 12.7466 19.3917C12.6564 19.3084 12.5315 19.2668 12.4065 19.2876C12.2816 19.3084 12.2122 19.4542 12.2747 19.5722C12.2885 19.593 12.3024 19.6208 12.3163 19.6416C12.4482 19.5652 12.58 19.4958 12.7258 19.6555C14.2458 21.3628 16.5014 22.3831 18.9167 22.3831H19H19.0833C21.5124 22.3831 23.782 21.3489 25.302 19.6208C25.4408 19.4611 25.5726 19.5375 25.6976 19.6208C25.7045 19.6069 25.7184 19.5861 25.7253 19.5722C25.7947 19.4542 25.7253 19.3154 25.5935 19.2876Z" fill="url(#paint6_linear_1_7000)"/>
<path d="M15.5783 12.2083C14.5233 12.7844 13.1144 13.5964 10.4076 12.4374C10.0398 12.2777 9.85239 12.4443 9.81075 12.6386C10.1786 12.4027 10.7616 13.5687 13.0311 13.5687C15.6546 13.5687 16.0502 12.125 16.3348 12.6456C16.314 12.2986 15.9392 12.007 15.5783 12.2083Z" fill="url(#paint7_linear_1_7000)"/>
<path d="M24.9273 14.7972C24.9273 14.7972 27.287 14.7972 28.113 13.0968C28.1615 12.9927 28.1963 12.8747 28.2101 12.7567C28.231 12.5207 28.0436 12.25 27.5994 12.4374C24.8926 13.5895 23.4837 12.7775 22.4287 12.2084C22.0192 11.9863 21.5958 12.3819 21.6861 12.7775C21.7138 12.8955 21.7277 13.0135 21.7763 13.1176C22.5675 14.8111 24.9273 14.7972 24.9273 14.7972Z" fill="url(#paint8_radial_1_7000)"/>
<path d="M22.9839 7.8704C22.9978 7.27352 23.6571 6.91955 24.7676 6.94731C25.7115 6.97508 27.7728 7.55114 29.147 9.43201C29.4038 9.77903 28.9874 9.95254 28.7375 9.72351C27.8839 8.95311 25.5588 7.92592 23.7196 8.07861C22.9769 8.13414 22.9839 7.8704 22.9839 7.8704Z" fill="url(#paint9_linear_1_7000)"/>
<path d="M22.4217 12.2083C23.4767 12.7844 24.8856 13.5964 27.5924 12.4374C27.9602 12.2777 28.1476 12.4443 28.1893 12.6386C27.8214 12.4027 27.2384 13.5687 24.9689 13.5687C22.3454 13.5687 21.9498 12.125 21.6652 12.6456C21.686 12.2986 22.0608 12.007 22.4217 12.2083Z" fill="url(#paint10_linear_1_7000)"/>
</g>
<defs>
<filter id="filter0_d_1_7000" x="0" y="0" width="38" height="38" filterUnits="userSpaceOnUse" color-interpolation-filters="sRGB">
<feFlood flood-opacity="0" result="BackgroundImageFix"/>
<feColorMatrix in="SourceAlpha" type="matrix" values="0 0 0 0 0 0 0 0 0 0 0 0 0 0 0 0 0 0 127 0" result="hardAlpha"/>
<feOffset dy="4"/>
<feGaussianBlur stdDeviation="2"/>
<feComposite in2="hardAlpha" operator="out"/>
<feColorMatrix type="matrix" values="0 0 0 0 0 0 0 0 0 0 0 0 0 0 0 0 0 0 0.25 0"/>
<feBlend mode="normal" in2="BackgroundImageFix" result="effect1_dropShadow_1_7000"/>
<feBlend mode="normal" in="SourceGraphic" in2="effect1_dropShadow_1_7000" result="shape"/>
</filter>
<radialGradient id="paint0_radial_1_7000" cx="0" cy="0" r="1" gradientUnits="userSpaceOnUse" gradientTransform="translate(16.0641 8.87464) scale(18.0015)">
<stop stop-color="#FFDF30"/>
<stop offset="1" stop-color="#FFB82E"/>
</radialGradient>
<radialGradient id="paint1_radial_1_7000" cx="0" cy="0" r="1" gradientUnits="userSpaceOnUse" gradientTransform="translate(16.0641 8.87464) scale(14.1626)">
<stop stop-color="#FFE95F"/>
<stop offset="1" stop-color="#FFBB47" stop-opacity="0"/>
</radialGradient>
<radialGradient id="paint2_radial_1_7000" cx="0" cy="0" r="1" gradientUnits="userSpaceOnUse" gradientTransform="translate(10.8704 18.6342) rotate(-2.7703) scale(6.27657 4.96633)">
<stop stop-color="#FF4C00"/>
<stop offset="0.1542" stop-color="#FF4C00"/>
<stop offset="0.1795" stop-color="#FF4C00"/>
<stop offset="0.3996" stop-color="#FA4C0B" stop-opacity="0.7318"/>
<stop offset="0.7799" stop-color="#EE4B27" stop-opacity="0.2683"/>
<stop offset="1" stop-color="#E64A3A" stop-opacity="0"/>
</radialGradient>
<radialGradient id="paint3_radial_1_7000" cx="0" cy="0" r="1" gradientUnits="userSpaceOnUse" gradientTransform="translate(27.1225 18.6342) rotate(-177.23) scale(6.27657 4.96633)">
<stop stop-color="#FF4C00"/>
<stop offset="0.1542" stop-color="#FF4C00"/>
<stop offset="0.1795" stop-color="#FF4C00"/>
<stop offset="0.3996" stop-color="#FA4C0B" stop-opacity="0.7318"/>
<stop offset="0.7799" stop-color="#EE4B27" stop-opacity="0.2683"/>
<stop offset="1" stop-color="#E64A3A" stop-opacity="0"/>
</radialGradient>
<radialGradient id="paint4_radial_1_7000" cx="0" cy="0" r="1" gradientUnits="userSpaceOnUse" gradientTransform="translate(13.0681 13.4651) rotate(-179.852) scale(2.53545 1.22314)">
<stop offset="0.00132565" stop-color="#7A4400"/>
<stop offset="1" stop-color="#643800"/>
</radialGradient>
<linearGradient id="paint5_linear_1_7000" x1="11.8874" y1="8.9561" x2="11.8427" y2="7.38437" gradientUnits="userSpaceOnUse">
<stop offset="0.00132565" stop-color="#3C2200"/>
<stop offset="1" stop-color="#7A4400"/>
</linearGradient>
<linearGradient id="paint6_linear_1_7000" x1="19" y1="20.3415" x2="19" y2="22.5692" gradientUnits="userSpaceOnUse">
<stop offset="0.00132565" stop-color="#3C2200"/>
<stop offset="1" stop-color="#512D00"/>
</linearGradient>
<linearGradient id="paint7_linear_1_7000" x1="9.80344" y1="12.8569" x2="16.3286" y2="12.8569" gradientUnits="userSpaceOnUse">
<stop offset="0.00132565" stop-color="#3C2200"/>
<stop offset="1" stop-color="#512D00"/>
</linearGradient>
<radialGradient id="paint8_radial_1_7000" cx="0" cy="0" r="1" gradientUnits="userSpaceOnUse" gradientTransform="translate(24.9275 13.4651) rotate(-0.147672) scale(2.53545 1.22314)">
<stop offset="0.00132565" stop-color="#7A4400"/>
<stop offset="1" stop-color="#643800"/>
</radialGradient>
<linearGradient id="paint9_linear_1_7000" x1="26.1088" y1="8.95566" x2="26.1535" y2="7.38392" gradientUnits="userSpaceOnUse">
<stop offset="0.00132565" stop-color="#3C2200"/>
<stop offset="1" stop-color="#7A4400"/>
</linearGradient>
<linearGradient id="paint10_linear_1_7000" x1="28.1966" y1="12.8569" x2="21.6714" y2="12.8569" gradientUnits="userSpaceOnUse">
<stop offset="0.00132565" stop-color="#3C2200"/>
<stop offset="1" stop-color="#512D00"/>
</linearGradient>
</defs>
</svg>
