<svg width="178" height="44" viewBox="0 0 178 44" fill="none" xmlns="http://www.w3.org/2000/svg">
<path fill-rule="evenodd" clip-rule="evenodd" d="M43.8337 23.5047L54.5396 8.72949H49.9686C49.9686 8.72949 47.722 8.72948 46.2271 11.3607L38.5714 21.5775C38.1567 22.1319 37.8888 22.7919 37.8456 23.4783L37.8715 23.7511C37.9493 24.3495 38.1999 24.9127 38.5541 25.3967L46.2271 35.6399C47.722 38.2711 49.9686 38.2711 49.9686 38.2711H54.5396L43.8337 23.5047Z" fill="#4474FC"/>
<path d="M11.8719 33.3697C10.0315 33.0177 8.23418 34.1001 7.74165 35.9393L7.50836 36.8105C9.2538 38.0337 11.3621 38.6497 13.8161 38.6497C16.2183 38.6497 18.1365 38.2889 19.5536 37.5673C20.9707 36.8457 22.0594 35.8337 22.8112 34.5225C23.5629 33.2113 24.0554 31.6361 24.2887 29.7881C24.522 27.9401 24.6344 25.8809 24.6344 23.6281V8.55371H18.9747V23.6281C18.9747 25.3001 18.9228 26.7521 18.8105 27.9929C18.6982 29.2337 18.4649 30.2721 18.1106 31.1081C17.7563 31.9441 17.2379 32.5601 16.5553 32.9649C15.8726 33.3697 14.9567 33.5633 13.8075 33.5721C13.099 33.5545 12.4509 33.4841 11.8719 33.3697Z" fill="#4474FC"/>
<path d="M31.8228 8.4043H29.7145V34.4347C29.7145 36.4323 31.3044 38.0427 33.2572 38.0427H35.3655V12.0123C35.3655 10.0235 33.7756 8.4043 31.8228 8.4043Z" fill="#4474FC"/>
<path fill-rule="evenodd" clip-rule="evenodd" d="M62.0223 8.4043H60.7781H59.3955C56.328 8.7475 56.0688 11.5107 56.0688 11.5107V13.3411H60.7781H62.0223H63.4049C66.4723 12.9979 66.7316 10.2347 66.7316 10.2347V8.4043H62.0223Z" fill="white"/>
<path d="M92.2835 32.9915V25.2651H100.993C102.955 25.2651 104.536 23.6459 104.536 21.6571V20.5923H92.2835V13.4555H102.92C104.882 13.4555 106.463 11.8363 106.463 9.84751V8.4043H86.6238V34.4347C86.6238 36.4323 88.2137 38.0427 90.1665 38.0427H103.283C105.245 38.0427 106.826 36.4235 106.826 34.4347V32.9915H92.2835Z" fill="white"/>
<path d="M108.372 28.5912C109.072 30.4128 110.04 32.0408 111.284 33.4752C112.528 34.9096 114.006 36.0712 115.734 36.96C117.453 37.8488 119.354 38.2976 121.428 38.2976C122.603 38.2976 123.804 38.148 125.031 37.84C126.258 37.532 127.416 37.0832 128.496 36.5024C129.576 35.9216 130.544 35.2 131.408 34.3552C132.272 33.5016 132.929 32.5248 133.396 31.4072L131.149 30.096C129.931 29.3832 128.453 29.7176 127.468 30.7472C127.459 30.756 126.31 31.8032 125.671 32.164C125.031 32.5248 124.349 32.7888 123.64 32.956C122.932 33.1232 122.249 33.2112 121.592 33.2112C120.331 33.2112 119.182 32.9296 118.127 32.3752C117.073 31.8208 116.175 31.0816 115.423 30.1664C114.671 29.2512 114.092 28.1864 113.677 26.972C113.263 25.7576 113.064 24.4992 113.064 23.1968C113.064 22.0264 113.245 20.856 113.6 19.668C113.954 18.4888 114.481 17.4328 115.181 16.5C115.881 15.5672 116.753 14.8104 117.808 14.2208C118.862 13.64 120.097 13.3408 121.515 13.3408C122.171 13.3408 122.837 13.42 123.528 13.5696C124.21 13.7192 124.867 13.9656 125.498 14.3C126.129 14.6344 126.716 15.0832 127.261 15.6552C127.269 15.664 127.269 15.664 127.278 15.6728C128.263 16.7024 129.775 16.9752 130.942 16.1568L132.998 14.7136C132.039 12.7952 130.587 11.2376 128.635 10.0408C126.682 8.84401 124.366 8.24561 121.687 8.24561C119.423 8.24561 117.393 8.67681 115.622 9.53921C113.842 10.4016 112.338 11.528 111.111 12.9184C109.884 14.3088 108.942 15.8928 108.303 17.6528C107.663 19.4216 107.344 21.208 107.344 23.0208C107.326 24.9128 107.672 26.7696 108.372 28.5912Z" fill="white"/>
<path d="M137.976 8.40381H135.868C135.868 8.40381 135.868 12.3198 135.868 17.3094C135.868 21.0758 135.868 25.4494 135.868 29.1982V34.4254C135.868 36.423 137.458 38.0334 139.41 38.0334H141.519C141.519 38.0334 141.519 34.1174 141.519 29.1278V17.2478V12.0206C141.519 10.023 139.938 8.40381 137.976 8.40381Z" fill="white"/>
<path d="M158.265 8.4038C156.303 8.4038 154.722 10.023 154.722 12.0118V20.3806V20.539H147.256C144.189 20.8822 143.93 23.6454 143.93 23.6454V25.4758H154.722V34.4254C154.722 36.423 156.312 38.0334 158.265 38.0334H160.338V8.39502H158.265V8.4038Z" fill="white"/>
<path d="M69.2208 13.455V38.0422H71.2946C73.256 38.0422 74.8373 36.423 74.8373 34.4342V13.455H80.6007C82.5535 13.455 84.1434 11.8358 84.1434 9.84702V8.40381C84.1434 8.40381 75.2693 8.40381 69.2122 8.40381L69.2208 13.455Z" fill="white"/>
<path d="M38.5714 21.5868C38.1567 22.1412 37.8888 22.8012 37.8456 23.4876L37.8715 23.7604C37.9493 24.3588 38.1999 24.922 38.5541 25.406L40.5415 28.0548L43.8337 23.5052L40.5415 18.9644L38.5714 21.5868Z" fill="#324FB5"/>
<path d="M169.048 8.23682C169.333 8.23682 169.601 8.27202 169.869 8.35122C170.128 8.43042 170.379 8.52723 170.603 8.66803C170.828 8.80003 171.035 8.96723 171.225 9.16083C171.416 9.35443 171.571 9.56563 171.709 9.79443C171.839 10.0232 171.943 10.2784 172.02 10.5424C172.09 10.8064 172.133 11.088 172.133 11.3784C172.133 11.66 172.098 11.9416 172.02 12.2056C171.943 12.4696 171.848 12.7248 171.709 12.9536C171.58 13.1824 171.416 13.3936 171.225 13.5872C171.035 13.7808 170.828 13.9392 170.603 14.08C170.379 14.212 170.128 14.3176 169.869 14.3968C169.61 14.476 169.333 14.5112 169.048 14.5112C168.763 14.5112 168.495 14.476 168.236 14.3968C167.977 14.3264 167.735 14.2208 167.51 14.08C167.285 13.9392 167.078 13.7808 166.888 13.5872C166.698 13.3936 166.542 13.1824 166.404 12.9536C166.274 12.7248 166.171 12.4784 166.093 12.2144C166.015 11.9504 165.981 11.6688 165.981 11.3872C165.981 11.0968 166.015 10.824 166.093 10.5512C166.162 10.2872 166.266 10.032 166.404 9.80324C166.534 9.57444 166.698 9.36324 166.888 9.16964C167.078 8.97604 167.285 8.81762 167.51 8.67682C167.735 8.54482 167.977 8.43923 168.236 8.36003C168.495 8.27203 168.772 8.23682 169.048 8.23682ZM169.048 13.9832C169.281 13.9832 169.506 13.948 169.722 13.8864C169.938 13.8248 170.137 13.7368 170.327 13.6224C170.517 13.508 170.681 13.376 170.837 13.2176C170.992 13.0592 171.122 12.8832 171.225 12.6896C171.329 12.496 171.416 12.2848 171.476 12.0648C171.537 11.8448 171.562 11.6072 171.562 11.3608C171.562 11.1144 171.537 10.8768 171.476 10.6568C171.416 10.428 171.329 10.2168 171.225 10.0232C171.113 9.82964 170.984 9.64483 170.837 9.48643C170.681 9.32803 170.508 9.18723 170.327 9.07283C170.145 8.95843 169.938 8.87044 169.722 8.80884C169.506 8.74724 169.281 8.71202 169.048 8.71202C168.815 8.71202 168.59 8.74724 168.374 8.80884C168.158 8.87044 167.959 8.95843 167.778 9.07283C167.596 9.18723 167.424 9.32803 167.277 9.48643C167.13 9.64483 167 9.82084 166.888 10.0232C166.776 10.2168 166.698 10.428 166.637 10.6568C166.577 10.8856 166.551 11.1144 166.551 11.3608C166.551 11.7304 166.611 12.0736 166.741 12.3904C166.871 12.7072 167.043 12.9888 167.268 13.2264C167.493 13.464 167.761 13.6488 168.063 13.7808C168.374 13.9216 168.702 13.9832 169.048 13.9832ZM169.039 9.46003C169.558 9.46003 169.938 9.55684 170.18 9.74164C170.422 9.92644 170.543 10.1992 170.543 10.5512C170.543 10.8064 170.482 11.0176 170.353 11.2112C170.223 11.396 170.024 11.5368 169.757 11.616C169.817 11.66 169.869 11.704 169.912 11.7568C169.955 11.8096 169.999 11.88 170.033 11.9504L170.785 13.2528H169.929C169.808 13.2528 169.713 13.2088 169.67 13.112L169.074 11.9944C169.048 11.9592 169.013 11.924 168.979 11.9064C168.944 11.8888 168.892 11.8712 168.823 11.8712H168.599V13.244H167.709V9.44244H169.039V9.46003ZM168.953 11.2288C169.1 11.2288 169.212 11.22 169.307 11.1936C169.394 11.1672 169.471 11.132 169.523 11.088C169.575 11.044 169.61 10.9824 169.627 10.912C169.644 10.8416 169.653 10.7624 169.653 10.6744C169.653 10.5864 169.644 10.5072 169.627 10.4456C169.61 10.3752 169.575 10.3224 169.532 10.2784C169.489 10.2344 169.42 10.1992 169.342 10.1816C169.264 10.164 169.16 10.1464 169.031 10.1464H168.59V11.2376H168.953V11.2288Z" fill="white"/>
</svg>
