<svg width="20" height="20" viewBox="0 0 20 20" fill="none" xmlns="http://www.w3.org/2000/svg">
<path d="M18.4464 7.36663C17.9863 6.25769 17.3192 5.25018 16.4821 4.39996C15.6471 3.54769 14.6576 2.86847 13.5684 2.39996C12.4369 1.91246 11.2379 1.66663 10 1.66663C8.76209 1.66663 7.56305 1.91246 6.43154 2.39996C5.34241 2.86847 4.35289 3.54769 3.51785 4.39996C2.6808 5.25018 2.01371 6.25769 1.55357 7.36663C1.07477 8.51871 0.833328 9.73954 0.833328 11C0.833328 13.7645 2.02622 16.3687 4.10509 18.1479L4.13988 18.177C4.25855 18.277 4.40792 18.3333 4.56138 18.3333H15.4407C15.5941 18.3333 15.7435 18.277 15.8622 18.177L15.8969 18.1479C17.9738 16.3687 19.1667 13.7645 19.1667 11C19.1667 9.73954 18.9232 8.51871 18.4464 7.36663ZM15.103 16.75H4.89694C4.10631 16.0241 3.47441 15.1371 3.04224 14.1465C2.61008 13.1559 2.38731 12.0839 2.38839 11C2.38839 8.92913 3.18024 6.98329 4.61867 5.52079C6.0571 4.05621 7.96819 3.24996 10 3.24996C12.0338 3.24996 13.9449 4.05621 15.3813 5.52079C16.8197 6.98538 17.6116 8.93121 17.6116 11C17.6116 13.2 16.7011 15.2812 15.103 16.75ZM12.2814 8.11454C12.2507 8.08353 12.2091 8.06613 12.1658 8.06613C12.1225 8.06613 12.081 8.08353 12.0502 8.11454L10.3212 9.87496C9.93861 9.77079 9.51506 9.87079 9.21428 10.177C9.10775 10.2853 9.02323 10.4139 8.96556 10.5555C8.90789 10.697 8.87821 10.8488 8.87821 11.002C8.87821 11.1553 8.90789 11.3071 8.96556 11.4486C9.02323 11.5902 9.10775 11.7188 9.21428 11.827C9.32061 11.9355 9.44691 12.0216 9.58595 12.0803C9.72498 12.139 9.87403 12.1692 10.0245 12.1692C10.1751 12.1692 10.3241 12.139 10.4631 12.0803C10.6022 12.0216 10.7285 11.9355 10.8348 11.827C10.9773 11.6824 11.0798 11.502 11.1319 11.3041C11.184 11.1062 11.1839 10.8978 11.1315 10.7L12.8605 8.93954C12.9239 8.87496 12.9239 8.76871 12.8605 8.70413L12.2814 8.11454ZM9.54985 5.99996H10.4501C10.5402 5.99996 10.6138 5.92496 10.6138 5.83329V4.16663C10.6138 4.07496 10.5402 3.99996 10.4501 3.99996H9.54985C9.45982 3.99996 9.38616 4.07496 9.38616 4.16663V5.83329C9.38616 5.92496 9.45982 5.99996 9.54985 5.99996ZM14.8698 10.5416V11.4583C14.8698 11.55 14.9434 11.625 15.0335 11.625H16.6704C16.7604 11.625 16.8341 11.55 16.8341 11.4583V10.5416C16.8341 10.45 16.7604 10.375 16.6704 10.375H15.0335C14.9434 10.375 14.8698 10.45 14.8698 10.5416ZM15.1296 6.43329L14.4933 5.78538C14.4625 5.75436 14.421 5.73696 14.3777 5.73696C14.3344 5.73696 14.2929 5.75436 14.2621 5.78538L13.104 6.96454C13.0735 6.99587 13.0564 7.03817 13.0564 7.08225C13.0564 7.12633 13.0735 7.16863 13.104 7.19996L13.7403 7.84788C13.8038 7.91246 13.9081 7.91246 13.9715 7.84788L15.1296 6.66871C15.1931 6.60413 15.1931 6.49788 15.1296 6.43329ZM5.74609 5.78538C5.71532 5.75436 5.67378 5.73696 5.63048 5.73696C5.58719 5.73696 5.54564 5.75436 5.51488 5.78538L4.87853 6.43329C4.84807 6.46462 4.83098 6.50692 4.83098 6.551C4.83098 6.59508 4.84807 6.63738 4.87853 6.66871L6.03664 7.84788C6.10007 7.91246 6.20442 7.91246 6.26785 7.84788L6.9042 7.19996C6.96763 7.13538 6.96763 7.02913 6.9042 6.96454L5.74609 5.78538ZM4.88467 10.375H3.24776C3.15773 10.375 3.08407 10.45 3.08407 10.5416V11.4583C3.08407 11.55 3.15773 11.625 3.24776 11.625H4.88467C4.9747 11.625 5.04836 11.55 5.04836 11.4583V10.5416C5.04836 10.45 4.9747 10.375 4.88467 10.375Z" fill="#858585"/>
</svg>
