<svg width="20" height="20" viewBox="0 0 20 20" fill="none" xmlns="http://www.w3.org/2000/svg">
<path d="M3.59375 16.4062H16.4062V3.59375H3.59375V16.4062ZM12.8125 5.46875C12.8125 5.38281 12.8828 5.3125 12.9688 5.3125H14.5312C14.6172 5.3125 14.6875 5.38281 14.6875 5.46875V10.4688C14.6875 10.5547 14.6172 10.625 14.5312 10.625H12.9688C12.8828 10.625 12.8125 10.5547 12.8125 10.4688V5.46875ZM9.0625 5.46875C9.0625 5.38281 9.13281 5.3125 9.21875 5.3125H10.7812C10.8672 5.3125 10.9375 5.38281 10.9375 5.46875V9.0625C10.9375 9.14844 10.8672 9.21875 10.7812 9.21875H9.21875C9.13281 9.21875 9.0625 9.14844 9.0625 9.0625V5.46875ZM5.3125 5.46875C5.3125 5.38281 5.38281 5.3125 5.46875 5.3125H7.03125C7.11719 5.3125 7.1875 5.38281 7.1875 5.46875V14.5312C7.1875 14.6172 7.11719 14.6875 7.03125 14.6875H5.46875C5.38281 14.6875 5.3125 14.6172 5.3125 14.5312V5.46875Z" fill="#E6F7FF"/>
<path d="M17.1875 2.1875H2.8125C2.4668 2.1875 2.1875 2.4668 2.1875 2.8125V17.1875C2.1875 17.5332 2.4668 17.8125 2.8125 17.8125H17.1875C17.5332 17.8125 17.8125 17.5332 17.8125 17.1875V2.8125C17.8125 2.4668 17.5332 2.1875 17.1875 2.1875ZM16.4063 16.4063H3.59375V3.59375H16.4063V16.4063Z" fill="#1890FF"/>
<path d="M5.46875 14.6875H7.03125C7.11719 14.6875 7.1875 14.6172 7.1875 14.5313V5.46875C7.1875 5.38281 7.11719 5.3125 7.03125 5.3125H5.46875C5.38281 5.3125 5.3125 5.38281 5.3125 5.46875V14.5313C5.3125 14.6172 5.38281 14.6875 5.46875 14.6875ZM9.21875 9.21875H10.7812C10.8672 9.21875 10.9375 9.14844 10.9375 9.0625V5.46875C10.9375 5.38281 10.8672 5.3125 10.7812 5.3125H9.21875C9.13281 5.3125 9.0625 5.38281 9.0625 5.46875V9.0625C9.0625 9.14844 9.13281 9.21875 9.21875 9.21875ZM12.9688 10.625H14.5313C14.6172 10.625 14.6875 10.5547 14.6875 10.4688V5.46875C14.6875 5.38281 14.6172 5.3125 14.5313 5.3125H12.9688C12.8828 5.3125 12.8125 5.38281 12.8125 5.46875V10.4688C12.8125 10.5547 12.8828 10.625 12.9688 10.625Z" fill="#1890FF"/>
</svg>
