<svg width="20" height="20" viewBox="0 0 20 20" fill="none" xmlns="http://www.w3.org/2000/svg">
<path d="M11.4001 16.8184L11.4001 16.8184C11.0401 17.0153 10.661 17.1149 10.2688 17.1149C10.0669 17.1149 9.86244 17.0885 9.65599 17.0361C8.09048 16.6387 6.72217 16.369 4.6724 16.77L4.77353 17.1276L4.6773 17.1548L4.77353 17.1276C4.86196 17.4404 4.66406 17.7555 4.34569 17.8363C4.34569 17.8363 4.34568 17.8363 4.34568 17.8363L3.38339 18.0806L3.35878 17.9837L3.38338 18.0806C3.33176 18.0937 3.27973 18.1 3.22855 18.1C2.96583 18.1 2.71918 17.9336 2.64563 17.6734M11.4001 16.8184L2.33574 10.7192M11.4001 16.8184L18.3813 12.9996C18.7116 12.8189 18.9499 12.5248 19.0499 12.1711L18.9537 12.1439L19.0499 12.1711C19.1499 11.8172 19.099 11.4479 18.9071 11.1328L18.9071 11.1328C18.7153 10.8179 18.405 10.5938 18.0358 10.5C17.6665 10.4062 17.2811 10.4536 16.9509 10.6343L12.42 13.1128M11.4001 16.8184L12.42 13.1128M2.64563 17.6734L2.74186 17.6462L2.64563 17.6734L2.64563 17.6734ZM2.64563 17.6734L0.920995 11.5752L1.01721 11.548L0.920994 11.5752C0.832557 11.2625 1.03047 10.9473 1.34884 10.8665M1.34884 10.8665L1.37344 10.9635L1.34883 10.8665L1.34884 10.8665ZM1.34884 10.8665L2.3111 10.6223M2.3111 10.6223L2.33574 10.7192M2.3111 10.6223C2.46511 10.5831 2.62681 10.6033 2.76588 10.6794M2.3111 10.6223L2.31114 10.6223L2.33574 10.7192M2.33574 10.7192L2.76588 10.6794M12.42 13.1128C12.4135 12.4241 11.9257 11.7994 11.1985 11.6147L11.1739 11.7117L11.1985 11.6147L6.51728 10.4264L6.49267 10.5233L6.51728 10.4264C6.02934 10.3025 5.53713 10.3547 5.05379 10.4877C4.5729 10.6199 4.09345 10.8343 3.63029 11.0414L3.62636 11.0431C3.45806 11.1184 3.28738 11.1946 3.11619 11.2674L3.05266 11.0428V11.0428L3.04889 11.0295L3.04889 11.0294C3.00649 10.8796 2.905 10.7555 2.76588 10.6794M12.42 13.1128L2.76591 10.6794C2.7659 10.6794 2.76589 10.6794 2.76588 10.6794M3.89309 11.588L3.9339 11.6793C3.73089 11.7701 3.52185 11.8634 3.30973 11.9518L4.48051 16.0915C6.70869 15.6461 8.18223 15.9363 9.84225 16.3578C10.2685 16.466 10.6578 16.4173 11.0394 16.2086L18.0207 12.3897L18.0207 12.3897C18.183 12.301 18.2978 12.1578 18.3461 11.9869C18.3944 11.8161 18.3702 11.6393 18.2778 11.4876C18.1852 11.3357 18.0339 11.2252 17.8495 11.1783C17.6649 11.1315 17.4741 11.1552 17.3115 11.2441L12.0374 14.1292C11.727 14.4818 11.2634 14.6916 10.7733 14.6916C10.6331 14.6916 10.4906 14.6745 10.3489 14.6385L7.74934 13.9786C7.55802 13.9301 7.43616 13.7395 7.49054 13.5473M3.89309 11.588L7.49054 13.5473M3.89309 11.588L3.93391 11.6793C4.37759 11.4809 4.80082 11.2919 5.20507 11.175C5.60872 11.0583 5.98363 11.0166 6.33101 11.1047L11.0122 12.293C11.5037 12.4178 11.7881 12.8942 11.6595 13.3487C11.6289 13.4569 11.5775 13.5548 11.5103 13.64C11.5082 13.6425 11.5063 13.645 11.5046 13.6471C11.5038 13.6482 11.5031 13.6492 11.5024 13.6501C11.2838 13.919 10.9056 14.0542 10.5352 13.9601L7.93564 13.3003M3.89309 11.588L7.93564 13.3003M7.49054 13.5473C7.54419 13.3574 7.74585 13.252 7.93557 13.3002M7.49054 13.5473C7.49053 13.5473 7.49053 13.5473 7.49053 13.5473L7.93557 13.3002M7.93557 13.3002L7.93564 13.3003M7.93557 13.3002L7.93564 13.3003M15.9828 2.13039L15.9828 2.13035C15.9293 1.98961 15.7907 1.9 15.6402 1.9H7.72303C7.57257 1.9 7.43392 1.98954 7.38044 2.13039L6.70254 3.91577C6.70254 3.91578 6.70253 3.91579 6.70253 3.91579C6.68789 3.95435 6.68042 3.9951 6.68042 4.03619V9.77834C6.68042 9.97708 6.84886 10.1291 7.04512 10.1291H16.3181C16.5144 10.1291 16.6828 9.97708 16.6828 9.77834V4.03619C16.6828 3.9951 16.6753 3.95435 16.6607 3.91579C16.6607 3.91579 16.6607 3.91578 16.6607 3.91577L15.9828 2.13039ZM13.2095 5.64393V4.38694H15.9534V9.42755H7.40978V4.38694H10.1537V5.64393C10.1537 5.77483 10.229 5.89225 10.345 5.95256L10.3451 5.95258C10.4606 6.01252 10.6009 6.00831 10.7124 5.94101L10.7124 5.94099L11.6816 5.35556L12.6508 5.94098C12.6508 5.94098 12.6508 5.94099 12.6508 5.94099C12.7102 5.97689 12.7776 5.99472 12.8448 5.99472C12.9041 5.99472 12.9637 5.9808 13.0181 5.95257L13.0181 5.95256C13.1343 5.89225 13.2095 5.77481 13.2095 5.64393ZM10.724 8.6519V7.7258C10.724 7.52706 10.5556 7.37501 10.3593 7.37501H8.48434C8.28804 7.37501 8.11964 7.52706 8.11964 7.7258V8.6519C8.11964 8.85064 8.28804 9.00269 8.48434 9.00269H10.3593C10.5556 9.00269 10.724 8.85064 10.724 8.6519Z" fill="#858585" stroke="#858585" stroke-width="0.2"/>
</svg>
