<svg width="15" height="15" viewBox="0 0 15 15" fill="none" xmlns="http://www.w3.org/2000/svg">
<path d="M14.9546 13.9215L10.0853 9.05223C10.8409 8.07539 11.2497 6.88105 11.2497 5.62484C11.2497 4.12113 10.6628 2.71117 9.60159 1.64808C8.54037 0.584983 7.12667 0 5.62484 0C4.123 0 2.7093 0.586858 1.64808 1.64808C0.584983 2.7093 0 4.12113 0 5.62484C0 7.12667 0.586858 8.54037 1.64808 9.60159C2.7093 10.6647 4.12113 11.2497 5.62484 11.2497C6.88105 11.2497 8.07351 10.8409 9.05036 10.0872L13.9196 14.9546C13.9339 14.9688 13.9508 14.9802 13.9695 14.9879C13.9881 14.9956 14.0081 14.9996 14.0283 14.9996C14.0485 14.9996 14.0685 14.9956 14.0872 14.9879C14.1059 14.9802 14.1228 14.9688 14.1371 14.9546L14.9546 14.139C14.9688 14.1247 14.9802 14.1077 14.9879 14.0891C14.9956 14.0704 14.9996 14.0504 14.9996 14.0302C14.9996 14.01 14.9956 13.99 14.9879 13.9714C14.9802 13.9527 14.9688 13.9357 14.9546 13.9215ZM8.59475 8.59475C7.79977 9.38785 6.74605 9.82471 5.62484 9.82471C4.50362 9.82471 3.4499 9.38785 2.65492 8.59475C1.86182 7.79977 1.42496 6.74605 1.42496 5.62484C1.42496 4.50362 1.86182 3.44802 2.65492 2.65492C3.4499 1.86182 4.50362 1.42496 5.62484 1.42496C6.74605 1.42496 7.80165 1.85995 8.59475 2.65492C9.38785 3.4499 9.82471 4.50362 9.82471 5.62484C9.82471 6.74605 9.38785 7.80165 8.59475 8.59475Z" fill="black" fill-opacity="0.45"/>
</svg>
