<svg width="20" height="20" viewBox="0 0 20 20" fill="none" xmlns="http://www.w3.org/2000/svg">
<path d="M18.4464 7.3665C17.9863 6.25756 17.3192 5.25006 16.4821 4.39984C15.6471 3.54756 14.6576 2.86835 13.5684 2.39984C12.4369 1.91234 11.2379 1.6665 10 1.6665C8.76209 1.6665 7.56305 1.91234 6.43154 2.39984C5.34241 2.86835 4.35289 3.54756 3.51785 4.39984C2.6808 5.25006 2.01371 6.25756 1.55357 7.3665C1.07477 8.51859 0.833328 9.73942 0.833328 10.9998C0.833328 13.7644 2.02622 16.3686 4.10509 18.1478L4.13988 18.1769C4.25855 18.2769 4.40792 18.3332 4.56138 18.3332H15.4407C15.5941 18.3332 15.7435 18.2769 15.8622 18.1769L15.8969 18.1478C17.9738 16.3686 19.1667 13.7644 19.1667 10.9998C19.1667 9.73942 18.9232 8.51859 18.4464 7.3665ZM15.103 16.7498H4.89694C4.10631 16.024 3.47441 15.137 3.04224 14.1464C2.61008 13.1558 2.38731 12.0838 2.38839 10.9998C2.38839 8.929 3.18024 6.98317 4.61867 5.52067C6.0571 4.05609 7.96819 3.24984 10 3.24984C12.0338 3.24984 13.9449 4.05609 15.3813 5.52067C16.8197 6.98525 17.6116 8.93109 17.6116 10.9998C17.6116 13.1998 16.7011 15.2811 15.103 16.7498ZM12.2814 8.11442C12.2507 8.0834 12.2091 8.066 12.1658 8.066C12.1225 8.066 12.081 8.0834 12.0502 8.11442L10.3212 9.87484C9.93861 9.77067 9.51506 9.87067 9.21428 10.1769C9.10775 10.2852 9.02323 10.4138 8.96556 10.5553C8.90789 10.6969 8.87821 10.8487 8.87821 11.0019C8.87821 11.1552 8.90789 11.3069 8.96556 11.4485C9.02323 11.5901 9.10775 11.7187 9.21428 11.8269C9.32061 11.9354 9.44691 12.0214 9.58595 12.0802C9.72498 12.1389 9.87403 12.1691 10.0245 12.1691C10.1751 12.1691 10.3241 12.1389 10.4631 12.0802C10.6022 12.0214 10.7285 11.9354 10.8348 11.8269C10.9773 11.6823 11.0798 11.5019 11.1319 11.304C11.184 11.1061 11.1839 10.8977 11.1315 10.6998L12.8605 8.93942C12.9239 8.87484 12.9239 8.76859 12.8605 8.704L12.2814 8.11442ZM9.54985 5.99984H10.4501C10.5402 5.99984 10.6138 5.92484 10.6138 5.83317V4.1665C10.6138 4.07484 10.5402 3.99984 10.4501 3.99984H9.54985C9.45982 3.99984 9.38616 4.07484 9.38616 4.1665V5.83317C9.38616 5.92484 9.45982 5.99984 9.54985 5.99984ZM14.8698 10.5415V11.4582C14.8698 11.5498 14.9434 11.6248 15.0335 11.6248H16.6704C16.7604 11.6248 16.8341 11.5498 16.8341 11.4582V10.5415C16.8341 10.4498 16.7604 10.3748 16.6704 10.3748H15.0335C14.9434 10.3748 14.8698 10.4498 14.8698 10.5415ZM15.1296 6.43317L14.4933 5.78525C14.4625 5.75424 14.421 5.73684 14.3777 5.73684C14.3344 5.73684 14.2929 5.75424 14.2621 5.78525L13.104 6.96442C13.0735 6.99574 13.0564 7.03805 13.0564 7.08213C13.0564 7.12621 13.0735 7.16851 13.104 7.19984L13.7403 7.84775C13.8038 7.91234 13.9081 7.91234 13.9715 7.84775L15.1296 6.66859C15.1931 6.604 15.1931 6.49775 15.1296 6.43317ZM5.74609 5.78525C5.71532 5.75424 5.67378 5.73684 5.63048 5.73684C5.58719 5.73684 5.54564 5.75424 5.51488 5.78525L4.87853 6.43317C4.84807 6.46449 4.83098 6.5068 4.83098 6.55088C4.83098 6.59496 4.84807 6.63726 4.87853 6.66859L6.03664 7.84775C6.10007 7.91234 6.20442 7.91234 6.26785 7.84775L6.9042 7.19984C6.96763 7.13525 6.96763 7.029 6.9042 6.96442L5.74609 5.78525ZM4.88467 10.3748H3.24776C3.15773 10.3748 3.08407 10.4498 3.08407 10.5415V11.4582C3.08407 11.5498 3.15773 11.6248 3.24776 11.6248H4.88467C4.9747 11.6248 5.04836 11.5498 5.04836 11.4582V10.5415C5.04836 10.4498 4.9747 10.3748 4.88467 10.3748Z" fill="#1890FF"/>
</svg>
