<svg width="36" height="36" viewBox="0 0 36 36" fill="none" xmlns="http://www.w3.org/2000/svg">
<path d="M18 4.92188C10.7789 4.92188 4.92188 10.7789 4.92188 18C4.92188 25.2211 10.7789 31.0781 18 31.0781C25.2211 31.0781 31.0781 25.2211 31.0781 18C31.0781 10.7789 25.2211 4.92188 18 4.92188ZM23.4387 18.225L14.7902 24.4828C14.6039 24.6164 14.3438 24.4828 14.3438 24.2543V22.6055C14.3438 22.2469 14.516 21.9059 14.8078 21.6949L19.9195 18L14.8078 14.3016C14.516 14.0906 14.3438 13.7531 14.3438 13.391V11.7422C14.3438 11.5137 14.6039 11.3801 14.7902 11.5137L23.4387 17.7715C23.5934 17.884 23.5934 18.1125 23.4387 18.225Z" fill="#E6F7FF"/>
<path d="M18 2.25C9.30234 2.25 2.25 9.30234 2.25 18C2.25 26.6977 9.30234 33.75 18 33.75C26.6977 33.75 33.75 26.6977 33.75 18C33.75 9.30234 26.6977 2.25 18 2.25ZM18 31.0781C10.7789 31.0781 4.92188 25.2211 4.92188 18C4.92188 10.7789 10.7789 4.92188 18 4.92188C25.2211 4.92188 31.0781 10.7789 31.0781 18C31.0781 25.2211 25.2211 31.0781 18 31.0781Z" fill="#23468C"/>
<path d="M23.4387 17.7715L14.7902 11.5137C14.6039 11.3801 14.3438 11.5137 14.3438 11.7422V13.391C14.3438 13.7532 14.516 14.0907 14.8078 14.3016L19.9195 18L14.8078 21.695C14.516 21.9059 14.3438 22.2469 14.3438 22.6055V24.2543C14.3438 24.4828 14.6039 24.6164 14.7902 24.4828L23.4387 18.225C23.5934 18.1125 23.5934 17.884 23.4387 17.7715Z" fill="#23468C"/>
</svg>
