<svg width="178" height="178" viewBox="0 0 178 178" fill="none" xmlns="http://www.w3.org/2000/svg">
<path d="M115.563 172.895C101.867 177.232 87.3174 178.149 73.1849 175.567C59.0523 172.985 45.7668 166.983 34.4886 158.083L89 89L115.563 172.895Z" fill="#FAD337" stroke="white" stroke-width="2"/>
<path d="M35.9726 159.229C24.9814 150.93 16.0915 140.167 10.0182 127.806C3.94491 115.445 0.85773 101.831 1.00503 88.0588C1.15234 74.2871 4.53001 60.7422 10.8663 48.5139C17.2026 36.2855 26.3207 25.7151 37.4869 17.653L89 89L35.9726 159.229Z" fill="#F2637B" stroke="white" stroke-width="2"/>
<path d="M12.7898 45C20.5134 31.6223 31.6223 20.5134 45 12.7898C58.3777 5.06615 73.5528 1 89 1V89L12.7898 45Z" fill="#975FE4" stroke="white" stroke-width="2"/>
<path d="M166.527 130.636C155.485 151.197 136.727 166.53 114.379 173.261L89 89L166.527 130.636Z" fill="#36CBCB" stroke="white" stroke-width="2"/>
<path d="M89 1C104.286 1 119.307 4.98151 132.586 12.5524C145.865 20.1233 156.943 31.0225 164.729 44.1765C172.515 57.3305 176.74 72.2857 176.988 87.5692C177.237 102.853 173.5 117.937 166.146 131.338L89 89V1Z" fill="#3AA0FF" stroke="white" stroke-width="2"/>
</svg>
