<svg width="32" height="32" viewBox="0 0 32 32" fill="none" xmlns="http://www.w3.org/2000/svg">
<g clip-path="url(#clip0_1_6830)">
<path d="M16 24.5L14.125 28.25L16 32C18.0711 32 19.75 30.3211 19.75 28.25C19.75 26.1789 18.0711 24.5 16 24.5Z" fill="white"/>
<path d="M12.25 28.25C12.25 30.3211 13.9289 32 16 32V24.5C13.9289 24.5 12.25 26.1789 12.25 28.25Z" fill="white"/>
<path d="M16 0L12.25 3.75L16 7.5C17.2407 7.5 18.25 8.50931 18.25 9.75C18.25 10.4111 17.9598 11.0369 17.4538 11.4669L16 12.7029L13.5 17.6639L16 22.625H19.75V19.3589L22.311 17.1816C24.4965 15.3244 25.75 12.6158 25.75 9.75C25.75 4.37381 21.3762 0 16 0Z" fill="white"/>
<path d="M12.25 15.8912V22.6251H16V12.703L12.25 15.8912Z" fill="white"/>
<path d="M6.25 9.75V10.6875H13.75V9.75C13.75 8.50931 14.7593 7.5 16 7.5V0C10.6238 0 6.25 4.37381 6.25 9.75Z" fill="white"/>
</g>
<defs>
<clipPath id="clip0_1_6830">
<rect width="31.25" height="31.25" fill="white" transform="scale(1.024)"/>
</clipPath>
</defs>
</svg>
