<svg width="24" height="24" viewBox="0 0 24 24" fill="none" xmlns="http://www.w3.org/2000/svg">
<path d="M17.25 7.5H21.75C22.1646 7.5 22.5 7.16418 22.5 6.75V2.25C22.5 1.83582 22.1646 1.5 21.75 1.5H17.25C16.8354 1.5 16.5 1.83582 16.5 2.25V3.75H14.25C14.0874 3.75 13.9299 3.80273 13.8003 3.90015L10.5709 6.32181L8.58545 5.3291C8.37451 5.22363 8.12549 5.22363 7.91455 5.3291L1.91455 8.3291C1.6604 8.45618 1.5 8.71582 1.5 9V15C1.5 15.2842 1.6604 15.5438 1.91455 15.6709L7.91455 18.6709C8.02002 18.7236 8.13501 18.75 8.25 18.75C8.36499 18.75 8.47998 18.7236 8.58545 18.6709L10.5709 17.6782L13.8003 20.0999C13.9299 20.1973 14.0874 20.25 14.25 20.25H16.5V21.75C16.5 22.1642 16.8354 22.5 17.25 22.5H21.75C22.1646 22.5 22.5 22.1642 22.5 21.75V17.25C22.5 16.8358 22.1646 16.5 21.75 16.5H17.25C16.8354 16.5 16.5 16.8358 16.5 17.25V18.75H14.4998L12.0708 16.9282L14.5854 15.6709C14.8396 15.5438 15 15.2842 15 15V12.75H16.5V14.25C16.5 14.6642 16.8354 15 17.25 15H21.75C22.1646 15 22.5 14.6642 22.5 14.25V9.75C22.5 9.33582 22.1646 9 21.75 9H17.25C16.8354 9 16.5 9.33582 16.5 9.75V11.25H15V9C15 8.71582 14.8396 8.45618 14.5854 8.3291L12.0708 7.07176L14.4998 5.25H16.5V6.75C16.5 7.16418 16.8354 7.5 17.25 7.5ZM18 3H21V6H18V3ZM18 18H21V21H18V18ZM18 10.5H21V13.5H18V10.5ZM3 10.2136L7.5 12.4636V16.7864L3 14.5364V10.2136ZM9 16.7864V12.4636L13.5 10.2136V14.5364L9 16.7864ZM8.25 11.1614L3.92688 9L8.25 6.83862L12.5731 9L8.25 11.1614Z" fill="#858585"/>
<path d="M19.5 5.25C19.9142 5.25 20.25 4.91421 20.25 4.5C20.25 4.08579 19.9142 3.75 19.5 3.75C19.0858 3.75 18.75 4.08579 18.75 4.5C18.75 4.91421 19.0858 5.25 19.5 5.25Z" fill="#858585"/>
<path d="M19.5 20.25C19.9142 20.25 20.25 19.9142 20.25 19.5C20.25 19.0858 19.9142 18.75 19.5 18.75C19.0858 18.75 18.75 19.0858 18.75 19.5C18.75 19.9142 19.0858 20.25 19.5 20.25Z" fill="#858585"/>
<path d="M19.5 12.75C19.9142 12.75 20.25 12.4142 20.25 12C20.25 11.5858 19.9142 11.25 19.5 11.25C19.0858 11.25 18.75 11.5858 18.75 12C18.75 12.4142 19.0858 12.75 19.5 12.75Z" fill="#858585"/>
</svg>
