<svg width="24" height="24" viewBox="0 0 24 24" fill="none" xmlns="http://www.w3.org/2000/svg">
<g clip-path="url(#clip0_1_8303)">
<path d="M8.47549 17.1969H11.0663L12.3619 14.9533C12.3581 14.9466 11.0697 12.7154 11.0663 12.7092H8.47549C8.47364 12.7126 7.18253 14.9486 7.17987 14.9533L8.47549 17.1969Z" fill="white"/>
<path d="M8.47549 11.2911H11.0663C11.0681 11.2877 12.3593 9.05171 12.3619 9.04705L11.0663 6.80347H8.47549L7.17987 9.04705C7.18367 9.05375 8.47202 11.2849 8.47549 11.2911Z" fill="white"/>
<path d="M16.1984 14.2408L17.494 11.9968L16.1984 9.75317H13.6076L12.3125 11.9968L13.6076 14.2408H16.1984Z" fill="white"/>
<path d="M6.27198 4.78281C11.6709 0.406202 19.9542 3.65555 21.0735 10.3951L20.4932 9.92619L19.5977 11.0344L22.0324 13.0019L24 10.5672L22.8918 9.67168L22.4836 10.1767C20.2593 -1.14982 4.67582 -1.69239 1.66693 9.45948L3.05074 9.79867C3.53275 7.83202 4.67673 6.05064 6.27198 4.78281Z" fill="white"/>
<path d="M17.728 19.2174C12.329 23.594 4.04577 20.3447 2.92649 13.6051L3.50677 14.074L4.40225 12.9658L1.96755 10.9983L0 13.433L1.10821 14.3286L1.51632 13.8235C3.74067 25.1501 19.3241 25.6926 22.3331 14.5407L20.9493 14.2015C20.4672 16.1682 19.3232 17.9496 17.728 19.2174Z" fill="white"/>
</g>
<defs>
<clipPath id="clip0_1_8303">
<rect width="24" height="24" fill="white"/>
</clipPath>
</defs>
</svg>
