<svg width="20" height="20" viewBox="0 0 20 20" fill="none" xmlns="http://www.w3.org/2000/svg">
<g clip-path="url(#clip0_1_5718)">
<path d="M17.9467 14.9118H16.3775C16.2704 14.9118 16.17 14.9587 16.103 15.0413C15.9467 15.231 15.7793 15.414 15.603 15.5881C14.8818 16.3101 14.0275 16.8854 13.0874 17.2823C12.1134 17.6937 11.0665 17.9048 10.0092 17.9029C8.94004 17.9029 7.90433 17.693 6.93111 17.2823C5.991 16.8854 5.13671 16.3101 4.41549 15.5881C3.69298 14.8686 3.11686 14.0158 2.71906 13.077C2.30611 12.1038 2.09852 11.0703 2.09852 10.0011C2.09852 8.93188 2.30834 7.8984 2.71906 6.92519C3.11638 5.98546 3.68781 5.13947 4.41549 4.41403C5.14316 3.68858 5.98915 3.11715 6.93111 2.71983C7.90433 2.30912 8.94004 2.09929 10.0092 2.09929C11.0784 2.09929 12.1141 2.30688 13.0874 2.71983C14.0293 3.11715 14.8753 3.68858 15.603 4.41403C15.7793 4.59037 15.9445 4.7734 16.103 4.9609C16.17 5.04349 16.2726 5.09037 16.3775 5.09037H17.9467C18.0874 5.09037 18.1744 4.93412 18.0963 4.81581C16.3842 2.1551 13.3887 0.393937 9.98468 0.402866C4.63647 0.416259 0.348521 4.75778 0.402093 10.0993C0.455664 15.356 4.73692 19.5993 10.0092 19.5993C13.4043 19.5993 16.3865 17.8404 18.0963 15.1863C18.1722 15.068 18.0874 14.9118 17.9467 14.9118ZM19.9311 9.86046L16.7637 7.36046C16.6454 7.26671 16.4735 7.35153 16.4735 7.50108V9.19751H9.46459C9.36638 9.19751 9.28602 9.27787 9.28602 9.37608V10.6261C9.28602 10.7243 9.36638 10.8047 9.46459 10.8047H16.4735V12.5011C16.4735 12.6506 16.6476 12.7355 16.7637 12.6417L19.9311 10.1417C19.9525 10.125 19.9697 10.1037 19.9816 10.0793C19.9935 10.0549 19.9996 10.0282 19.9996 10.0011C19.9996 9.97398 19.9935 9.94723 19.9816 9.92287C19.9697 9.8985 19.9525 9.87716 19.9311 9.86046Z" fill="black" fill-opacity="0.85"/>
</g>
<defs>
<clipPath id="clip0_1_5718">
<rect width="20" height="20" fill="white"/>
</clipPath>
</defs>
</svg>
