<svg width="143" height="70" viewBox="0 0 143 70" fill="none" xmlns="http://www.w3.org/2000/svg">
<rect x="101" width="40" height="40" rx="20" fill="#C3D7FF"/>
<path fill-rule="evenodd" clip-rule="evenodd" d="M109.625 11.25C109.625 9.80025 110.8 8.625 112.25 8.625H129.75C131.2 8.625 132.375 9.80026 132.375 11.25V20C132.375 20.4832 131.983 20.875 131.5 20.875C131.017 20.875 130.625 20.4832 130.625 20V11.25C130.625 10.7667 130.233 10.375 129.75 10.375H112.25C111.767 10.375 111.375 10.7668 111.375 11.25V28.75C111.375 29.2332 111.767 29.625 112.25 29.625H121C121.483 29.625 121.875 30.0168 121.875 30.5C121.875 30.9832 121.483 31.375 121 31.375H112.25C110.8 31.375 109.625 30.1998 109.625 28.75V11.25Z" fill="#3F7FFF"/>
<path fill-rule="evenodd" clip-rule="evenodd" d="M125.667 22.0417C124.218 22.0417 123.042 23.217 123.042 24.6667C123.042 26.1164 124.218 27.2917 125.667 27.2917C127.117 27.2917 128.292 26.1164 128.292 24.6667C128.292 23.217 127.117 22.0417 125.667 22.0417ZM121.292 24.6667C121.292 22.2505 123.251 20.2917 125.667 20.2917C128.084 20.2917 130.042 22.2505 130.042 24.6667C130.042 27.083 128.084 29.0417 125.667 29.0417C123.251 29.0417 121.292 27.083 121.292 24.6667Z" fill="#3F7FFF"/>
<path fill-rule="evenodd" clip-rule="evenodd" d="M127.9 26.4535C128.201 26.076 128.752 26.0149 129.129 26.3167L132.046 28.6501C132.423 28.952 132.485 29.5027 132.183 29.88C131.881 30.2574 131.33 30.3185 130.953 30.0166L128.036 27.6832C127.659 27.3814 127.598 26.8308 127.9 26.4535Z" fill="#3F7FFF"/>
<path fill-rule="evenodd" clip-rule="evenodd" d="M114.292 15.3333C114.292 14.85 114.684 14.4583 115.167 14.4583H126.834C127.317 14.4583 127.709 14.85 127.709 15.3333C127.709 15.8165 127.317 16.2083 126.834 16.2083H115.167C114.684 16.2083 114.292 15.8165 114.292 15.3333Z" fill="#3F7FFF"/>
<path fill-rule="evenodd" clip-rule="evenodd" d="M114.292 20C114.292 19.5168 114.684 19.125 115.167 19.125H119.834C120.317 19.125 120.709 19.5168 120.709 20C120.709 20.4832 120.317 20.875 119.834 20.875H115.167C114.684 20.875 114.292 20.4832 114.292 20Z" fill="#3F7FFF"/>
</svg>
