<svg width="188" height="228" viewBox="0 0 188 228" fill="none" xmlns="http://www.w3.org/2000/svg">
<path d="M0.316483 118.741L0.105495 115.747L0.605353 115.712L0.513929 114.415L1.32871 113.427L0.942087 113.108L2.82622 110.823L3.21284 111.142L5.09696 108.857L4.71034 108.538L6.59447 106.253L6.98109 106.572L8.86521 104.287L8.4786 103.968L10.3627 101.683L10.7493 102.002L12.6335 99.7168L12.2469 99.398L14.131 97.113L14.5176 97.4318L16.4017 95.1468L16.0151 94.828L17.8992 92.5429L18.2859 92.8617L20.17 90.5767L19.7834 90.2579L21.6675 87.9729L22.0541 88.2917L23.9383 86.0067L23.5516 85.6879L25.4358 83.4029L25.8224 83.7217L27.7065 81.4367L27.3199 81.1179L29.204 78.8329L29.5907 79.1517L31.4748 76.8667L31.0882 76.5479L32.9723 74.2629L33.3589 74.5817L35.2431 72.2966L34.8564 71.9779L36.7406 69.6928L37.1272 70.0116L39.0113 67.7266L38.6247 67.4078L40.5088 65.1228L40.8954 65.4416L42.7796 63.1566L42.393 62.8378L44.2771 60.5528L44.6637 60.8716L46.5478 58.5866L46.1612 58.2678L48.0454 55.9828L48.432 56.3016L50.3161 54.0166L49.9295 53.6978L51.8136 51.4128L52.2002 51.7315L54.0844 49.4465L53.6978 49.1277L55.5819 46.8427L55.9685 47.1615L57.8526 44.8765L57.466 44.5577L59.3502 42.2727L59.7368 42.5915L61.6209 40.3065L61.2343 39.9877L63.1184 37.7027L63.505 38.0215L65.3892 35.7365L65.0026 35.4177L66.8867 33.1327L67.2733 33.4514L69.1574 31.1664L68.7708 30.8476L70.6549 28.5626L71.0416 28.8814L72.9257 26.5964L72.5391 26.2776L74.4232 23.9926L74.8098 24.3114L76.694 22.0264L76.3073 21.7076L78.1915 19.4226L78.5781 19.7414L80.4622 17.4564L80.0756 17.1376L81.9597 14.8526L82.3464 15.1714L84.2305 12.8863L83.8439 12.5676L85.728 10.2826L86.1146 10.6013L87.9988 8.31633L87.6121 7.99754L89.4963 5.71253L89.8829 6.03132L91.767 3.74631L91.3804 3.42752L93.2645 1.1425L93.6511 1.4613L94.281 0.69745L95.0902 1.33688L95.4009 0.94372L97.7894 2.83119L97.4787 3.22436L99.8673 5.11183L100.178 4.71867L102.567 6.60614L102.256 6.9993L104.644 8.88678L104.955 8.49362L107.344 10.3811L107.033 10.7743L109.422 12.6617L109.732 12.2686L112.121 14.156L111.81 14.5492L114.199 16.4367L114.509 16.0435L116.898 17.931L116.587 18.3241L118.976 20.2116L119.287 19.8185L121.675 21.7059L121.364 22.0991L123.753 23.9866L124.064 23.5934L126.452 25.4809L126.142 25.874L128.53 27.7615L128.841 27.3684L131.229 29.2558L130.919 29.649L133.307 31.5365L133.618 31.1433L136.007 33.0308L135.696 33.4239L138.084 35.3114L138.395 34.9182L140.784 36.8057L140.473 37.1989L142.862 39.0863L143.172 38.6932L145.561 40.5807L145.25 40.9738L147.639 42.8613L147.949 42.4681L150.338 44.3556L150.027 44.7488L152.416 46.6362L152.727 46.2431L155.115 48.1306L154.804 48.5237L157.193 50.4112L157.504 50.018L159.892 51.9055L159.582 52.2987L161.97 54.1861L162.281 53.793L164.669 55.6804L164.359 56.0736L165.395 56.8923L165.576 58.2064L166.073 58.1379L166.49 61.1654L165.994 61.2338L166.411 64.2613L166.908 64.1928L167.325 67.2203L166.829 67.2888L167.246 70.3163L167.743 70.2478L168.16 73.2753L167.664 73.3437L168.082 76.3712L168.578 76.3027L168.996 79.3302L168.499 79.3987L168.917 82.4262L169.413 82.3577L169.831 85.3852L169.334 85.4536L169.752 88.4811L170.248 88.4126L170.666 91.4401L170.17 91.5086L170.587 94.536L171.084 94.4676L171.501 97.4951L171.005 97.5635L171.422 100.591L171.919 100.523L172.336 103.55L171.84 103.618L172.257 106.646L172.754 106.577L173.171 109.605L172.675 109.673L173.093 112.701L173.589 112.632L174.007 115.66L173.51 115.728L173.928 118.756L174.424 118.687L174.842 121.715L174.345 121.783L174.763 124.811L175.259 124.742L175.677 127.77L175.181 127.838L175.389 129.352L175.39 129.359L175.622 130.881L176.117 130.806L176.58 133.851L176.084 133.926L176.547 136.972L177.042 136.896L177.505 139.942L177.009 140.017L177.472 143.062L177.967 142.987L178.43 146.032L177.934 146.107L178.397 149.152L178.892 149.077L179.355 152.122L178.859 152.197L179.322 155.242L179.817 155.167L180.28 158.212L179.785 158.288L180.247 161.333L180.743 161.257L181.205 164.303L180.71 164.378L181.172 167.423L181.668 167.348L182.13 170.393L181.635 170.468L182.097 173.513L182.593 173.438L183.055 176.483L182.56 176.558L183.022 179.604L183.518 179.528L183.98 182.573L183.485 182.649L183.948 185.694L184.443 185.619L184.905 188.664L184.41 188.739L184.873 191.784L185.368 191.709L185.831 194.754L185.335 194.829L185.798 197.874L186.293 197.799L186.756 200.844L186.26 200.92L186.723 203.965L187.218 203.889L187.681 206.935L187.185 207.01L187.348 208.082L186.287 208.347L186.409 208.833L183.402 209.585L183.281 209.098L180.274 209.85L180.396 210.336L177.389 211.088L177.267 210.602L174.261 211.353L174.382 211.84L171.376 212.591L171.254 212.105L168.248 212.857L168.369 213.343L165.363 214.095L165.241 213.608L162.235 214.36L162.356 214.846L159.349 215.598L159.228 215.112L156.221 215.863L156.343 216.349L153.336 217.101L153.215 216.615L150.208 217.367L150.33 217.853L147.323 218.604L147.202 218.118L144.195 218.87L144.316 219.356L141.31 220.108L141.188 219.622L138.182 220.373L138.303 220.859L135.297 221.611L135.175 221.125L132.169 221.876L132.29 222.363L129.284 223.114L129.162 222.628L126.155 223.38L126.277 223.866L123.27 224.618L123.149 224.131L120.142 224.883L120.264 225.369L117.257 226.121L117.136 225.635L114.129 226.386L114.251 226.873L111.244 227.624L111.122 227.138L109.679 227.499H108.245V228H105.253V227.499H102.261V228H99.2691V227.499H96.2773V228H93.2854V227.499H90.2936V228H87.3017V227.499H84.3099V228H81.318V227.499H78.3262V228H75.3343V227.499H72.3425V228H69.3506V227.499H66.3588V228H63.3669V227.499H60.3751V228H57.3832V227.499H54.3913V228H51.3995V227.499H48.4076V228H45.4158V227.499H42.4239V228H39.4321V227.499H36.4402V228H33.4484V227.499H30.4565V228H27.4646V227.499H24.4728V228H21.4809V227.499H18.4891V228H15.4972V227.499H12.5054V228H9.51351V227.499H8.4846L8.41195 226.468L7.91209 226.503L7.7011 223.51L8.20096 223.475L7.98997 220.481L7.49011 220.517L7.27912 217.523L7.77898 217.488L7.56799 214.494L7.06813 214.53L6.85714 211.536L7.357 211.501L7.14601 208.508L6.64615 208.543L6.43517 205.549L6.93502 205.514L6.72404 202.521L6.22418 202.556L6.01319 199.563L6.51305 199.527L6.30206 196.534L5.8022 196.569L5.59121 193.576L6.09107 193.541L5.88008 190.547L5.38022 190.582L5.16923 187.589L5.66909 187.554L5.4581 184.56L4.95824 184.596L4.74725 181.602L5.24711 181.567L5.03612 178.574L4.53626 178.609L4.32527 175.615L4.82513 175.58L4.61414 172.587L4.11428 172.622L3.9033 169.629L4.40315 169.593L4.19217 166.6L3.69231 166.635L3.48132 163.642L3.98118 163.607L3.77019 160.613L3.27033 160.648L3.05934 157.655L3.5592 157.62L3.34821 154.626L2.84835 154.662L2.63736 151.668L3.13722 151.633L2.92623 148.639L2.42637 148.675L2.21538 145.681L2.71524 145.646L2.50425 142.653L2.0044 142.688L1.79341 139.695L2.29327 139.659L2.08228 136.666L1.58242 136.701L1.37143 133.708L1.87129 133.672L1.6603 130.679L1.16044 130.714L0.94945 127.721L1.44931 127.686L1.23832 124.692L0.738462 124.727L0.527473 121.734L1.02733 121.699L0.816342 118.705L0.316483 118.741Z" stroke="#002A71" stroke-linejoin="round" stroke-dasharray="3 3"/>
</svg>
