<svg width="20" height="20" viewBox="0 0 20 20" fill="none" xmlns="http://www.w3.org/2000/svg">
<path d="M18.1118 2.22217H1.9423C1.82048 2.22217 1.7208 2.30029 1.7208 2.39578V3.61106C1.7208 3.70654 1.82048 3.78467 1.9423 3.78467H18.1118C18.2336 3.78467 18.3333 3.70654 18.3333 3.61106V2.39578C18.3333 2.30029 18.2336 2.22217 18.1118 2.22217ZM18.1118 6.10913H1.7208C1.59898 6.10913 1.7208 8.46349 1.7208 8.55897V9.77425C1.7208 9.86974 1.82048 9.94786 1.9423 9.94786H18.1118C18.2336 9.94786 18.3333 9.86974 18.3333 9.77425V6.28274C18.3333 6.18725 18.2336 6.10913 18.1118 6.10913ZM18.1118 10.5651H1.9423C1.82048 10.5651 1.7208 10.6433 1.7208 10.7388V15.9374C1.7208 16.0329 1.82048 16.1111 1.9423 16.1111H18.1118C18.2336 16.1111 18.3333 16.0329 18.3333 15.9374V10.7388C18.3333 10.6433 18.2336 10.5651 18.1118 10.5651Z" fill="#858585"/>
<path d="M18.1118 16.6666H1.94229C1.82047 16.6666 1.72079 16.7448 1.72079 16.8402V18.0555C1.72079 18.151 1.82047 18.2291 1.94229 18.2291H18.1118C18.2336 18.2291 18.3333 18.151 18.3333 18.0555V16.8402C18.3333 16.7448 18.2336 16.6666 18.1118 16.6666Z" fill="#858585"/>
</svg>
