<svg width="48" height="48" viewBox="0 0 48 48" fill="none" xmlns="http://www.w3.org/2000/svg">
<circle cx="24" cy="24" r="24" fill="#99D6F5"/>
<path d="M33.0323 23.7417V24.1944C33.0323 24.7492 33.1217 25.3003 33.2971 25.8265L34.3226 28.9029H36.258V21.8062H34.9677C33.8988 21.8062 33.0323 22.6727 33.0323 23.7417Z" fill="#5A4146"/>
<path d="M41.8659 25.0819L40.7742 28.903L35.6129 24.3869C34.9002 24.3869 34.3226 23.8092 34.3226 23.0966C34.3226 22.0277 35.1891 21.1611 36.258 21.1611H40.7741C41.4868 21.1611 42.0644 21.7389 42.0644 22.4514V23.6641C42.0645 24.1436 41.9976 24.6207 41.8659 25.0819Z" fill="#694B4B"/>
<path d="M39.4834 30.8389H35.6125V33.6943H39.4834V30.8389Z" fill="#E6AF78"/>
<path d="M35.6129 32.0239C36.2112 32.2671 36.8637 32.4039 37.5484 32.4039C38.233 32.4039 38.8855 32.2671 39.4838 32.0239V30.8389H35.6129V32.0239Z" fill="#D29B6E"/>
<path d="M42.5962 33.2931L39.4837 32.4039L37.5484 33.6882L35.6129 32.4038L32.5006 33.2931C31.6696 33.5305 31.0968 34.29 31.0968 35.1541V39.871C31.0968 40.2273 31.3856 40.5162 31.742 40.5162H43.3548C43.7112 40.5162 44 40.2273 44 39.871V35.1541C44 34.2899 43.4271 33.5305 42.5962 33.2931Z" fill="#D5DCED"/>
<path d="M38.1935 40.5158H36.9032L37.2258 33.6938H37.8709L38.1935 40.5158Z" fill="#AFB9D2"/>
<path d="M37.5484 31.4839C35.4105 31.4839 33.6774 29.7508 33.6774 27.613V26.8571C33.6774 26.5149 33.8134 26.1867 34.0553 25.9447L35.2252 24.7748C35.473 24.527 35.8117 24.3846 36.1619 24.3956C38.2242 24.4607 40.0497 24.9025 41.0476 25.8771C41.2919 26.1157 41.4194 26.4494 41.4194 26.7909V27.613C41.4194 29.7508 39.6863 31.4839 37.5484 31.4839Z" fill="#F0C087"/>
<path d="M35.6129 27.0172C35.6129 26.273 36.2379 25.6814 36.9806 25.7287C38.2831 25.8119 40.2157 26.0295 41.4014 26.5998C41.3627 26.3276 41.2458 26.0707 41.0476 25.8771C40.0497 24.9025 38.2242 24.4607 36.1619 24.3956L36.1618 24.3957C35.8117 24.3847 35.4729 24.5271 35.2252 24.7748L34.0554 25.9446C33.8134 26.1866 33.6774 26.5148 33.6774 26.857V27.6129C33.6774 29.3782 34.8603 30.8645 36.4759 31.33C35.9381 30.6666 35.613 29.8244 35.613 28.9032L35.6129 27.0172Z" fill="#E6AF78"/>
<path d="M41.4194 37.0767C41.4194 36.5633 41.6233 36.071 41.9862 35.7081L43.647 34.0474C43.8689 34.3646 44 34.7466 44 35.1543V39.8712C44 40.2275 43.7112 40.5163 43.3548 40.5163H41.4194V37.0767Z" fill="#C7CFE2"/>
<path d="M37.8709 34.9842H37.2258C37.0477 34.9842 36.9032 34.8397 36.9032 34.6616V33.6938H38.1935V34.6616C38.1935 34.8397 38.0491 34.9842 37.8709 34.9842Z" fill="#959CB5"/>
<path d="M37.5484 33.6884L36.4549 34.5236C36.2665 34.6675 35.9941 34.6098 35.8803 34.4019L34.8994 32.6105L35.2942 32.0082C35.3818 31.8746 35.5684 31.8519 35.6856 31.9605L37.5484 33.6884Z" fill="#C7CFE2"/>
<path d="M37.5484 33.6883L38.6419 34.5236C38.8302 34.6675 39.1026 34.6098 39.2164 34.4019L40.1974 32.6105L39.8025 32.0082C39.7149 31.8746 39.5283 31.8519 39.4112 31.9605L37.5484 33.6883Z" fill="#C7CFE2"/>
<path d="M15.5486 31.2144C14.9973 29.7536 14.56 27.2425 14.4655 25.935C14.2859 23.4471 12.4109 21.4189 9.8764 21.4189C7.34187 21.4189 5.46695 23.4471 5.28726 25.935C5.19281 27.2424 4.75554 29.7536 4.20422 31.2144C4.08273 31.5364 4.22297 31.8915 4.54007 32.0353C5.13086 32.303 6.39047 32.8275 7.90961 33.0318H11.8431C13.3552 32.8271 14.6236 32.3022 15.2127 32.0353C15.5298 31.8915 15.6701 31.5364 15.5486 31.2144Z" fill="#5A4146"/>
<path d="M15.2127 32.0353C15.5298 31.8915 15.6701 31.5364 15.5485 31.2144C14.9973 29.7536 14.5599 27.2425 14.4655 25.935C14.2859 23.4471 12.4109 21.4189 9.87648 21.4189C9.87007 21.4189 9.86374 21.4189 9.85734 21.419C7.91257 21.4269 7.22531 24.0792 8.89945 25.0688C8.99999 25.1282 9.06445 25.1568 9.06445 25.1568L10.5308 33.0318H11.8432C13.3552 32.8269 14.6237 32.3021 15.2127 32.0353Z" fill="#694B4B"/>
<path d="M14.543 34.327L12.4552 33.2831C12.018 33.0645 11.7418 32.6177 11.7419 32.1289L11.742 30.1934H7.87094V32.129C7.87094 32.6177 7.59484 33.0645 7.15766 33.283L5.06984 34.327C4.41414 34.6548 4 35.3249 4 36.058V39.8706C4 40.2269 4.28883 40.5158 4.64516 40.5158H14.9677C15.3241 40.5158 15.6129 40.2269 15.6129 39.8706V36.058C15.6129 35.3249 15.1987 34.6548 14.543 34.327Z" fill="#E6AF78"/>
<path d="M9.80648 32.774C10.5012 32.774 11.1666 32.6308 11.7766 32.3759C11.7605 32.2945 11.7419 32.2137 11.7419 32.1289L11.742 30.1934H7.87093V32.129C7.87093 32.2142 7.85226 32.2955 7.83609 32.3771C8.44648 32.6307 9.11156 32.774 9.80648 32.774Z" fill="#D29B6E"/>
<path d="M14.543 34.3272L13.0556 33.5836C12.3659 34.6486 11.1698 35.3549 9.80648 35.3549C8.4432 35.3549 7.24695 34.6486 6.55727 33.5835L5.06992 34.3272C4.41422 34.6551 4 35.3252 4 36.0583V39.8709C4 40.2272 4.28883 40.5161 4.64516 40.5161H14.9677C15.3241 40.5161 15.6129 40.2272 15.6129 39.8709V36.0583C15.6129 35.3252 15.1987 34.6551 14.543 34.3272Z" fill="#D5DCED"/>
<path d="M9.80647 31.484C7.83835 31.484 6.21335 30.0152 5.96764 28.114C5.93202 27.8386 6.06444 27.5685 6.31241 27.4434C6.60944 27.2936 7.04108 27.0409 7.45436 26.6722C7.9146 26.2615 8.1846 25.8285 8.3371 25.5106C8.46842 25.2368 8.7703 25.082 9.06452 25.1571C11.3361 25.7365 12.8826 26.9183 13.4437 27.4008C13.5943 27.5303 13.6811 27.7213 13.6656 27.9194C13.5093 29.914 11.8412 31.484 9.80647 31.484Z" fill="#F0C087"/>
<path d="M13.4436 27.4008C12.8826 26.9183 11.336 25.7365 9.06445 25.1571C8.77023 25.082 8.46836 25.2369 8.33703 25.5106C8.22156 25.7514 8.0307 26.0581 7.7475 26.3712C7.74742 26.372 7.74718 26.3726 7.74711 26.3734C7.65922 26.473 7.56562 26.5729 7.45437 26.6722C7.04109 27.0411 6.60945 27.2936 6.31242 27.4435C6.06445 27.5686 5.93211 27.8387 5.96765 28.1142C6.18836 29.8216 7.52445 31.1807 9.21961 31.4399C8.44718 30.9144 7.87101 30.1918 7.87101 28.9035V27.9835C8.01757 27.8753 8.16515 27.7674 8.31343 27.6351C8.67203 27.3151 8.98507 26.945 9.23609 26.5465C10.9738 27.0888 12.1519 27.992 12.5986 28.3761C12.7209 28.4833 13.0243 28.7629 13.3793 29.096C13.532 28.7284 13.633 28.334 13.6655 27.9196C13.681 27.7214 13.5942 27.5304 13.4436 27.4008Z" fill="#E6AF78"/>
<path d="M4.39328 34.895C4.14477 35.2249 4 35.6295 4 36.058V39.8706C4 40.227 4.28883 40.5158 4.64516 40.5158H6.58063V37.265C6.58063 36.8731 6.40242 36.5023 6.09633 36.2574L4.39328 34.895Z" fill="#C7CFE2"/>
<path d="M33.269 33.4469L27.8709 31.4839L24 32.7743L20.1291 31.484L14.731 33.4469C13.7112 33.8178 13.0323 34.787 13.0323 35.8722V39.8711C13.0323 40.2273 13.3211 40.5162 13.6774 40.5162H34.3226C34.6789 40.5162 34.9677 40.2273 34.9677 39.8711V35.8722C34.9677 34.7869 34.2889 33.8177 33.269 33.4469Z" fill="#FACC15"/>
<path d="M23.3241 34.0645L22.7097 40.5159H25.2903L24.6759 34.0645H23.3241Z" fill="#707487"/>
<path d="M24.6773 34.9506H23.3226C23.0732 34.9506 22.871 34.7485 22.871 34.499V32.7739H25.1289V34.499C25.129 34.7484 24.9268 34.9506 24.6773 34.9506Z" fill="#5B5D6E"/>
<path d="M34.2733 34.1138C34.7089 34.5813 34.9677 35.2041 34.9677 35.872V39.871C34.9677 40.2273 34.6789 40.5161 34.3226 40.5161H31.0968V38.3592C31.0968 37.6748 31.3687 37.0184 31.8527 36.5345L34.2733 34.1138Z" fill="#D23C69"/>
<path d="M31.0968 18.1789V12.7742C31.0968 12.0615 30.5191 11.4839 29.8065 11.4839H22.0645C19.2141 11.4839 16.9032 13.7947 16.9032 16.6452V18.1789C16.9032 18.8723 17.015 19.5612 17.2343 20.219L17.4491 20.8633C17.5148 21.0607 17.5484 21.2673 17.5484 21.4754V21.8065H30.4516V21.4754C30.4516 21.2673 30.4851 21.0607 30.5509 20.8633L30.7656 20.219C30.985 19.5612 31.0968 18.8722 31.0968 18.1789Z" fill="#5A4146"/>
<path d="M20.1291 14.1048C20.1291 15.5523 21.3025 16.7258 22.75 16.7258H23.1129L23.288 21.8064H30.4516V21.4753C30.4516 21.2672 30.4851 21.0606 30.5509 20.8633L30.7656 20.219C30.9849 19.5612 31.0967 18.8722 31.0967 18.1788V12.7742C31.0967 12.0615 30.519 11.4839 29.8064 11.4839H22.75C21.3025 11.4839 20.1291 12.6573 20.1291 14.1048Z" fill="#694B4B"/>
<path d="M27.8711 26.9678H20.1289V32.774H27.8711V26.9678Z" fill="#E6AF78"/>
<path d="M20.1291 29.1493C21.2688 29.8096 22.5882 30.1936 24 30.1936C25.4118 30.1936 26.7313 29.8096 27.871 29.1493V26.9678H20.129L20.1291 29.1493Z" fill="#D29B6E"/>
<path d="M24 32.7742L21.9423 34.8319C21.6658 35.1084 21.2087 35.0772 20.9723 34.7657L18.8387 31.9544L19.3968 30.7784C19.5615 30.4314 19.991 30.3042 20.318 30.5058L24 32.7742Z" fill="#D23C69"/>
<path d="M24 32.7742L26.0577 34.8319C26.3342 35.1084 26.7913 35.0772 27.0277 34.7657L29.1612 31.9544L28.6032 30.7784C28.4385 30.4314 28.009 30.3042 27.682 30.5058L24 32.7742Z" fill="#D23C69"/>
<path d="M24 28.9031C20.4369 28.9031 17.5484 26.0146 17.5484 22.4515V21.6956C17.5484 21.3534 17.6843 21.0252 17.9263 20.7832L18.4607 20.2488C18.7027 20.0068 18.8386 19.6786 18.8386 19.3363V17.7898C18.8386 17.491 19.0392 17.2315 19.3299 17.1628C20.8558 16.8024 25.604 15.9488 28.8353 18.3253C29.0452 18.4796 29.1612 18.7331 29.1612 18.9936V19.3363C29.1612 19.6785 29.2971 20.0067 29.5391 20.2488L30.0735 20.7832C30.3155 21.0252 30.4514 21.3534 30.4514 21.6956V22.4515C30.4517 26.0146 27.5631 28.9031 24 28.9031Z" fill="#F0C087"/>
<path d="M28.8354 18.3257C26.5627 16.6542 23.5439 16.5819 21.4194 16.8107C20.5232 16.9072 19.7827 17.0563 19.3301 17.1632C19.0394 17.2319 18.8388 17.4914 18.8388 17.7902V19.3366C18.8388 19.6789 18.7028 20.0071 18.4608 20.2491L17.9263 20.7836C17.6843 21.0256 17.5484 21.3538 17.5484 21.6961V22.4519C17.5484 25.7506 20.0257 28.4663 23.2204 28.8519C22.1072 27.6926 21.4193 26.1216 21.4193 24.3873V19.6716C21.4193 19.0178 21.9055 18.4714 22.5542 18.3901C24.1024 18.1959 26.9382 18.0792 29.1612 19.3368V18.994C29.1613 18.7335 29.0451 18.4799 28.8354 18.3257Z" fill="#E6AF78"/>
<path d="M13.7267 34.1138C13.2911 34.5813 13.0323 35.2041 13.0323 35.872V39.871C13.0323 40.2273 13.3211 40.5161 13.6774 40.5161H16.9032V38.3592C16.9032 37.6748 16.6313 37.0184 16.1473 36.5345L13.7267 34.1138Z" fill="#D23C69"/>
</svg>
