<svg width="24" height="24" viewBox="0 0 24 24" fill="none" xmlns="http://www.w3.org/2000/svg">
<g clip-path="url(#clip0_1_6005)">
<path d="M12.1691 10.5822C12.149 10.5566 12.1234 10.5359 12.0942 10.5216C12.065 10.5074 12.0329 10.5 12.0003 10.5C11.9678 10.5 11.9357 10.5074 11.9065 10.5216C11.8772 10.5359 11.8516 10.5566 11.8316 10.5822L8.83159 14.3778C8.80686 14.4093 8.79152 14.4472 8.78731 14.4871C8.78311 14.527 8.79021 14.5673 8.80781 14.6033C8.82542 14.6394 8.85281 14.6698 8.88685 14.691C8.9209 14.7122 8.96023 14.7234 9.00034 14.7233H10.9798V21.2161C10.9798 21.334 11.0762 21.4304 11.1941 21.4304H12.8012C12.9191 21.4304 13.0155 21.334 13.0155 21.2161V14.726H15.0003C15.1798 14.726 15.2789 14.5197 15.1691 14.3804L12.1691 10.5822Z" fill="white" fill-opacity="0.85"/>
<path d="M20.0196 8.10301C18.7929 4.8673 15.667 2.56641 12.0054 2.56641C8.34375 2.56641 5.21786 4.86462 3.99107 8.10034C1.69554 8.70301 0 10.795 0 13.2807C0 16.2405 2.39732 18.6378 5.35446 18.6378H6.42857C6.54643 18.6378 6.64286 18.5414 6.64286 18.4235V16.8164C6.64286 16.6985 6.54643 16.6021 6.42857 16.6021H5.35446C4.45179 16.6021 3.60268 16.2432 2.97054 15.5923C2.34107 14.9441 2.00625 14.0709 2.03571 13.1655C2.05982 12.4584 2.30089 11.7941 2.7375 11.2343C3.18482 10.6637 3.81161 10.2485 4.50804 10.0637L5.52321 9.79855L5.89554 8.81819C6.12589 8.20748 6.44732 7.63694 6.85179 7.11998C7.25108 6.60759 7.72407 6.15716 8.25536 5.78337C9.35625 5.00926 10.6527 4.59944 12.0054 4.59944C13.358 4.59944 14.6545 5.00926 15.7554 5.78337C16.2884 6.15837 16.7598 6.60837 17.1589 7.11998C17.5634 7.63694 17.8848 8.21016 18.1152 8.81819L18.4848 9.79587L19.4973 10.0637C20.9491 10.4548 21.9643 11.7753 21.9643 13.2807C21.9643 14.1673 21.6187 15.003 20.992 15.6298C20.6846 15.939 20.3189 16.1841 19.9162 16.351C19.5134 16.5179 19.0815 16.6033 18.6455 16.6021H17.5714C17.4536 16.6021 17.3571 16.6985 17.3571 16.8164V18.4235C17.3571 18.5414 17.4536 18.6378 17.5714 18.6378H18.6455C21.6027 18.6378 24 16.2405 24 13.2807C24 10.7977 22.3098 8.70837 20.0196 8.10301Z" fill="white" fill-opacity="0.85"/>
</g>
<defs>
<clipPath id="clip0_1_6005">
<rect width="24" height="24" fill="white"/>
</clipPath>
</defs>
</svg>
