<svg width="24" height="24" viewBox="0 0 24 24" fill="none" xmlns="http://www.w3.org/2000/svg">
<path d="M5.20446 12.6744L17.2795 22.1056C17.311 22.1305 17.3489 22.1459 17.3889 22.1502C17.4288 22.1544 17.4691 22.1473 17.5052 22.1297C17.5413 22.1121 17.5717 22.0846 17.5929 22.0505C17.614 22.0164 17.6252 21.977 17.625 21.9369V19.8663C17.625 19.7351 17.5634 19.6092 17.4616 19.5288L7.81875 11.9994L17.4616 4.46991C17.5661 4.38955 17.625 4.26366 17.625 4.13241V2.06187C17.625 1.88241 17.4187 1.7833 17.2795 1.89312L5.20446 11.3244C5.10183 11.4044 5.01881 11.5068 4.9617 11.6238C4.9046 11.7408 4.87492 11.8692 4.87492 11.9994C4.87492 12.1295 4.9046 12.258 4.9617 12.3749C5.01881 12.4919 5.10183 12.5943 5.20446 12.6744Z" fill="#666666"/>
</svg>
